  0
SECTION
  2
HEADER
  9
$ACADVER
  1
AC1015
  9
$ACADMAINTVER
 70
     6
  9
$DWGCODEPAGE
  3
ANSI_1252
  9
$INSBASE
 10
0.0
 20
0.0
 30
0.0
  9
$EXTMIN
 10
0.0
 20
0.0
 30
0.0
  9
$EXTMAX
 10
431.8
 20
279.4
 30
0.0
  9
$LIMMIN
 10
0.0
 20
0.0
  9
$LIMMAX
 10
431.8
 20
279.4
  9
$ORTHOMODE
 70
     0
  9
$REGENMODE
 70
     1
  9
$FILLMODE
 70
     1
  9
$QTEXTMODE
 70
     0
  9
$MIRRTEXT
 70
     1
  9
$LTSCALE
 40
1.0
  9
$ATTMODE
 70
     1
  9
$TEXTSIZE
 40
3.175
  9
$TRACEWID
 40
1.0
  9
$TEXTSTYLE
  7
Standard
  9
$CLAYER
  8
0
  9
$CELTYPE
  6
ByLayer
  9
$CECOLOR
 62
   256
  9
$CELTSCALE
 40
1.0
  9
$DISPSILH
 70
     0
  9
$DIMSCALE
 40
1.0
  9
$DIMASZ
 40
3.302
  9
$DIMEXO
 40
1.27
  9
$DIMDLI
 40
3.75
  9
$DIMRND
 40
0.0
  9
$DIMDLE
 40
0.0
  9
$DIMEXE
 40
3.175
  9
$DIMTP
 40
0.0
  9
$DIMTM
 40
0.0
  9
$DIMTXT
 40
3.175
  9
$DIMCEN
 40
2.5
  9
$DIMTSZ
 40
0.0
  9
$DIMTOL
 70
     0
  9
$DIMLIM
 70
     0
  9
$DIMTIH
 70
     1
  9
$DIMTOH
 70
     1
  9
$DIMSE1
 70
     0
  9
$DIMSE2
 70
     0
  9
$DIMTAD
 70
     0
  9
$DIMZIN
 70
     1
  9
$DIMBLK
  1

  9
$DIMASO
 70
     1
  9
$DIMSHO
 70
     1
  9
$DIMPOST
  1

  9
$DIMAPOST
  1

  9
$DIMALT
 70
     0
  9
$DIMALTD
 70
     3
  9
$DIMALTF
 40
0.0393700787
  9
$DIMLFAC
 40
5.0
  9
$DIMTOFL
 70
     1
  9
$DIMTVP
 40
0.0
  9
$DIMTIX
 70
     0
  9
$DIMSOXD
 70
     0
  9
$DIMSAH
 70
     0
  9
$DIMBLK1
  1

  9
$DIMBLK2
  1

  9
$DIMSTYLE
  2
ISO-25
  9
$DIMCLRD
 70
     0
  9
$DIMCLRE
 70
     0
  9
$DIMCLRT
 70
     0
  9
$DIMTFAC
 40
1.0
  9
$DIMGAP
 40
1.524
  9
$DIMJUST
 70
     0
  9
$DIMSD1
 70
     0
  9
$DIMSD2
 70
     0
  9
$DIMTOLJ
 70
     0
  9
$DIMTZIN
 70
     1
  9
$DIMALTZ
 70
     0
  9
$DIMALTTZ
 70
     0
  9
$DIMUPT
 70
     0
  9
$DIMDEC
 70
     2
  9
$DIMTDEC
 70
     2
  9
$DIMALTU
 70
     2
  9
$DIMALTTD
 70
     3
  9
$DIMTXSTY
  7
Standard
  9
$DIMAUNIT
 70
     0
  9
$DIMADEC
 70
     2
  9
$DIMALTRND
 40
0.0
  9
$DIMAZIN
 70
     0
  9
$DIMDSEP
 70
    44
  9
$DIMATFIT
 70
     3
  9
$DIMFRAC
 70
     0
  9
$DIMLDRBLK
  1

  9
$DIMLUNIT
 70
     2
  9
$DIMLWD
 70
    -2
  9
$DIMLWE
 70
    -2
  9
$DIMTMOVE
 70
     0
  9
$LUNITS
 70
     2
  9
$LUPREC
 70
     2
  9
$SKETCHINC
 40
1.0
  9
$FILLETRAD
 40
10.0
  9
$AUNITS
 70
     0
  9
$AUPREC
 70
     2
  9
$MENU
  1
.
  9
$ELEVATION
 40
0.0
  9
$PELEVATION
 40
0.0
  9
$THICKNESS
 40
0.0
  9
$LIMCHECK
 70
     0
  9
$CHAMFERA
 40
0.0
  9
$CHAMFERB
 40
0.0
  9
$CHAMFERC
 40
0.0
  9
$CHAMFERD
 40
0.0
  9
$SKPOLY
 70
     0
  9
$TDCREATE
 40
2458086.035274572
  9
$TDUCREATE
 40
2458086.243607905
  9
$TDUPDATE
 40
2458086.035277327
  9
$TDUUPDATE
 40
2458086.24361066
  9
$TDINDWG
 40
0.0000000116
  9
$TDUSRTIMER
 40
0.0000000116
  9
$USRTIMER
 70
     1
  9
$ANGBASE
 50
0.0
  9
$ANGDIR
 70
     0
  9
$PDMODE
 70
     0
  9
$PDSIZE
 40
-1.0
  9
$PLINEWID
 40
0.0
  9
$SPLFRAME
 70
     0
  9
$SPLINETYPE
 70
     6
  9
$SPLINESEGS
 70
     8
  9
$HANDSEED
  5
263
  9
$SURFTAB1
 70
     6
  9
$SURFTAB2
 70
     6
  9
$SURFTYPE
 70
     6
  9
$SURFU
 70
     6
  9
$SURFV
 70
     6
  9
$UCSBASE
  2

  9
$UCSNAME
  2

  9
$UCSORG
 10
0.0
 20
0.0
 30
0.0
  9
$UCSXDIR
 10
1.0
 20
0.0
 30
0.0
  9
$UCSYDIR
 10
0.0
 20
1.0
 30
0.0
  9
$UCSORTHOREF
  2

  9
$UCSORTHOVIEW
 70
     0
  9
$UCSORGTOP
 10
0.0
 20
0.0
 30
0.0
  9
$UCSORGBOTTOM
 10
0.0
 20
0.0
 30
0.0
  9
$UCSORGLEFT
 10
0.0
 20
0.0
 30
0.0
  9
$UCSORGRIGHT
 10
0.0
 20
0.0
 30
0.0
  9
$UCSORGFRONT
 10
0.0
 20
0.0
 30
0.0
  9
$UCSORGBACK
 10
0.0
 20
0.0
 30
0.0
  9
$PUCSBASE
  2

  9
$PUCSNAME
  2

  9
$PUCSORG
 10
0.0
 20
0.0
 30
0.0
  9
$PUCSXDIR
 10
1.0
 20
0.0
 30
0.0
  9
$PUCSYDIR
 10
0.0
 20
1.0
 30
0.0
  9
$PUCSORTHOREF
  2

  9
$PUCSORTHOVIEW
 70
     0
  9
$PUCSORGTOP
 10
0.0
 20
0.0
 30
0.0
  9
$PUCSORGBOTTOM
 10
0.0
 20
0.0
 30
0.0
  9
$PUCSORGLEFT
 10
0.0
 20
0.0
 30
0.0
  9
$PUCSORGRIGHT
 10
0.0
 20
0.0
 30
0.0
  9
$PUCSORGFRONT
 10
0.0
 20
0.0
 30
0.0
  9
$PUCSORGBACK
 10
0.0
 20
0.0
 30
0.0
  9
$USERI1
 70
     0
  9
$USERI2
 70
     0
  9
$USERI3
 70
     0
  9
$USERI4
 70
     0
  9
$USERI5
 70
     0
  9
$USERR1
 40
0.0
  9
$USERR2
 40
0.0
  9
$USERR3
 40
0.0
  9
$USERR4
 40
0.0
  9
$USERR5
 40
0.0
  9
$WORLDVIEW
 70
     1
  9
$SHADEDGE
 70
     3
  9
$SHADEDIF
 70
    70
  9
$TILEMODE
 70
     1
  9
$MAXACTVP
 70
    64
  9
$PINSBASE
 10
0.0
 20
0.0
 30
0.0
  9
$PLIMCHECK
 70
     0
  9
$PEXTMIN
 10
1.0000000000E+20
 20
1.0000000000E+20
 30
1.0000000000E+20
  9
$PEXTMAX
 10
-1.0000000000E+20
 20
-1.0000000000E+20
 30
-1.0000000000E+20
  9
$PLIMMIN
 10
0.0
 20
0.0
  9
$PLIMMAX
 10
420.0
 20
297.0
  9
$UNITMODE
 70
     0
  9
$VISRETAIN
 70
     1
  9
$PLINEGEN
 70
     0
  9
$PSLTSCALE
 70
     1
  9
$TREEDEPTH
 70
  3020
  9
$CMLSTYLE
  2
Standard
  9
$CMLJUST
 70
     0
  9
$CMLSCALE
 40
20.0
  9
$PROXYGRAPHICS
 70
     1
  9
$MEASUREMENT
 70
     1
  9
$CELWEIGHT
370
    -1
  9
$ENDCAPS
280
     0
  9
$JOINSTYLE
280
     0
  9
$LWDISPLAY
290
     1
  9
$INSUNITS
 70
     4
  9
$HYPERLINKBASE
  1

  9
$STYLESHEET
  1

  9
$XEDIT
290
     1
  9
$CEPSNTYPE
380
     0
  9
$PSTYLEMODE
290
     1
  9
$FINGERPRINTGUID
  2
{157DB11C-0AAB-4990-A298-E7E0BB68948D}
  9
$VERSIONGUID
  2
{FAEB1C32-E019-11D5-929B-00C0DF256EC4}
  9
$EXTNAMES
290
     1
  9
$PSVPSCALE
 40
0.0
  9
$OLESTARTUP
290
     0
  0
ENDSEC
  0
SECTION
  2
CLASSES
  0
CLASS
  1
ACDBDICTIONARYWDFLT
  2
AcDbDictionaryWithDefault
  3
ObjectDBX Classes
 90
        0
280
     0
281
     0
  0
CLASS
  1
VISUALSTYLE
  2
AcDbVisualStyle
  3
ObjectDBX Classes
 90
     4095
280
     0
281
     0
  0
CLASS
  1
MATERIAL
  2
AcDbMaterial
  3
ObjectDBX Classes
 90
     1153
280
     0
281
     0
  0
CLASS
  1
SCALE
  2
AcDbScale
  3
ObjectDBX Classes
 90
     1153
280
     0
281
     0
  0
CLASS
  1
TABLESTYLE
  2
AcDbTableStyle
  3
ObjectDBX Classes
 90
     4095
280
     0
281
     0
  0
CLASS
  1
MLEADERSTYLE
  2
AcDbMLeaderStyle
  3
ACDB_MLEADERSTYLE_CLASS
 90
     4095
280
     0
281
     0
  0
CLASS
  1
SUN
  2
AcDbSun
  3
SCENEOE
 90
     1153
280
     0
281
     0
  0
CLASS
  1
ACDBPLACEHOLDER
  2
AcDbPlaceHolder
  3
ObjectDBX Classes
 90
        0
280
     0
281
     0
  0
CLASS
  1
LAYOUT
  2
AcDbLayout
  3
ObjectDBX Classes
 90
        0
280
     0
281
     0
  0
ENDSEC
  0
SECTION
  2
TABLES
  0
TABLE
  2
VPORT
  5
8
330
0
100
AcDbSymbolTable
 70
     1
  0
VPORT
  5
29
330
8
100
AcDbSymbolTableRecord
100
AcDbViewportTableRecord
  2
*Active
 70
     0
 10
0.0
 20
0.0
 11
1.0
 21
1.0
 12
215.9
 22
139.7
 13
0.0
 23
0.0
 14
10.0
 24
10.0
 15
10.0
 25
10.0
 16
0.0
 26
0.0
 36
1.0
 17
0.0
 27
0.0
 37
0.0
 40
279.4
 41
1.5454545455
 42
50.0
 43
0.0
 44
0.0
 50
0.0
 51
0.0
 71
     0
 72
  2000
 73
     1
 74
     3
 75
     0
 76
     0
 77
     0
 78
     0
281
     0
 65
     1
110
0.0
120
0.0
130
0.0
111
1.0
121
0.0
131
0.0
112
0.0
122
1.0
132
0.0
 79
     0
146
0.0
  0
ENDTAB
  0
TABLE
  2
LTYPE
  5
5
330
0
100
AcDbSymbolTable
 70
     6
  0
LTYPE
  5
14
330
5
100
AcDbSymbolTableRecord
100
AcDbLinetypeTableRecord
  2
ByBlock
 70
     0
  3

 72
    65
 73
     0
 40
0.0
  0
LTYPE
  5
15
330
5
100
AcDbSymbolTableRecord
100
AcDbLinetypeTableRecord
  2
ByLayer
 70
     0
  3

 72
    65
 73
     0
 40
0.0
  0
LTYPE
  5
16
330
5
100
AcDbSymbolTableRecord
100
AcDbLinetypeTableRecord
  2
Continuous
 70
     0
  3
Solid line
 72
    65
 73
     0
 40
0.0
  0
LTYPE
  5
6E
330
5
100
AcDbSymbolTableRecord
100
AcDbLinetypeTableRecord
  2
HIDDEN
 70
     0
  3
Hidden __ __ __ __ __ __ __ __ __ __ __ __ __ __
 72
    65
 73
     2
 40
1.905
 49
1.27
 74
     0
 49
-0.635
 74
     0
  0
LTYPE
  5
6F
330
5
100
AcDbSymbolTableRecord
100
AcDbLinetypeTableRecord
  2
PHANTOM
 70
     0
  3
Phantom ______  __  __  ______  __  __  ______
 72
    65
 73
     6
 40
12.7
 49
6.35
 74
     0
 49
-1.27
 74
     0
 49
1.27
 74
     0
 49
-1.27
 74
     0
 49
1.27
 74
     0
 49
-1.27
 74
     0
  0
LTYPE
  5
70
330
5
100
AcDbSymbolTableRecord
100
AcDbLinetypeTableRecord
  2
CENTER
 70
     0
  3
Center ____ _ ____ _ ____ _ ____ _ ____ _ ____
 72
    65
 73
     4
 40
10.16
 49
6.35
 74
     0
 49
-1.27
 74
     0
 49
1.27
 74
     0
 49
-1.27
 74
     0
  0
LTYPE
  5
71
330
5
100
AcDbSymbolTableRecord
100
AcDbLinetypeTableRecord
  2
CENTERX2
 70
     0
  3
Center (2x) ________  __  ________  __  _____
 72
    65
 73
     4
 40
20.32
 49
12.7
 74
     0
 49
-2.54
 74
     0
 49
2.54
 74
     0
 49
-2.54
 74
     0
  0
LTYPE
  5
72
330
5
100
AcDbSymbolTableRecord
100
AcDbLinetypeTableRecord
  2
DOT2
 70
     0
  3
Dot (.5x) ........................................
 72
    65
 73
     2
 40
0.635
 49
0.0
 74
     0
 49
-0.635
 74
     0
  0
ENDTAB
  0
TABLE
  2
LAYER
  5
2
330
0
100
AcDbSymbolTable
 70
     2
  0
LAYER
  5
10
330
2
100
AcDbSymbolTableRecord
100
AcDbLayerTableRecord
  2
0
 70
     0
 62
     7
  6
Continuous
370
    -3
390
F
  0
LAYER
  5
73
330
2
100
AcDbSymbolTableRecord
100
AcDbLayerTableRecord
  2
FORMAT
 70
     0
 62
     7
  6
Continuous
370
    -3
390
F
  0
ENDTAB
  0
TABLE
  2
STYLE
  5
3
330
0
100
AcDbSymbolTable
 70
     4
  0
STYLE
  5
11
330
3
100
AcDbSymbolTableRecord
100
AcDbTextStyleTableRecord
  2
Standard
 70
     0
 40
0.0
 41
1.0
 50
0.0
 71
     0
 42
3.175
  3
txt
  4

  0
STYLE
  5
98
330
3
100
AcDbSymbolTableRecord
100
AcDbTextStyleTableRecord
  2
SLDTEXTSTYLE0
 70
     0
 40
0.0
 41
0.75
 50
0.0
 71
     0
 42
3.175
  3
TXT
  4

  0
STYLE
  5
AC
330
3
100
AcDbSymbolTableRecord
100
AcDbTextStyleTableRecord
  2
SLDTEXTSTYLE1
 70
     0
 40
0.0
 41
0.6875
 50
0.0
 71
     0
 42
3.175
  3
TXT
  4

  0
STYLE
  5
B2
330
3
100
AcDbSymbolTableRecord
100
AcDbTextStyleTableRecord
  2
SLDTEXTSTYLE2
 70
     0
 40
0.0
 41
0.6944444444
 50
0.0
 71
     0
 42
3.175
  3
TXT
  4

  0
ENDTAB
  0
TABLE
  2
VIEW
  5
6
330
0
100
AcDbSymbolTable
 70
     0
  0
ENDTAB
  0
TABLE
  2
UCS
  5
7
330
0
100
AcDbSymbolTable
 70
     0
  0
ENDTAB
  0
TABLE
  2
APPID
  5
9
330
0
100
AcDbSymbolTable
 70
     1
  0
APPID
  5
12
330
9
100
AcDbSymbolTableRecord
100
AcDbRegAppTableRecord
  2
ACAD
 70
     0
  0
ENDTAB
  0
TABLE
  2
DIMSTYLE
  5
A
330
0
100
AcDbSymbolTable
 70
     6
100
AcDbDimStyleTable
  0
DIMSTYLE
105
27
330
A
100
AcDbSymbolTableRecord
100
AcDbDimStyleTableRecord
  2
ISO-25
 70
     0
 41
2.5
 42
0.625
 43
3.75
 44
1.25
 73
     0
 74
     0
 77
     1
 78
     8
140
2.5
141
2.5
143
0.0393700787
147
0.625
171
     3
172
     1
178
     0
271
     2
272
     2
274
     3
278
    44
283
     0
284
     8
340
11
  0
DIMSTYLE
105
101
102
{ACAD_REACTORS
330
100
330
10C
330
122
330
12D
330
142
102
}
330
A
100
AcDbSymbolTableRecord
100
AcDbDimStyleTableRecord
  2
SLDDIMSTYLE0
 70
     0
 41
3.302
 44
0.0
 45
0.000000001
 78
     4
 79
     1
140
3.175
144
5.0
147
0.79375
173
     1
178
     0
271
     2
272
     2
276
     2
284
    12
340
98
  0
DIMSTYLE
105
117
102
{ACAD_REACTORS
330
116
330
167
330
1DC
102
}
330
A
100
AcDbSymbolTableRecord
100
AcDbDimStyleTableRecord
  2
SLDDIMSTYLE1
 70
     0
 41
3.302
 44
0.0
 45
0.000000001
 78
     4
 79
     1
140
3.175
144
5.0
147
0.79375
172
     1
173
     1
178
     0
271
     2
272
     2
276
     2
284
    12
289
     0
340
98
  0
DIMSTYLE
105
139
102
{ACAD_REACTORS
330
138
102
}
330
A
100
AcDbSymbolTableRecord
100
AcDbDimStyleTableRecord
  2
SLDDIMSTYLE2
 70
     0
 41
3.302
 44
0.0
 45
0.000000001
 78
     4
 79
     1
140
3.175
141
0.0
144
5.0
147
0.79375
173
     1
178
     0
271
     1
272
     1
276
     2
284
    12
340
98
  0
DIMSTYLE
105
14E
102
{ACAD_REACTORS
330
14D
102
}
330
A
100
AcDbSymbolTableRecord
100
AcDbDimStyleTableRecord
  2
SLDDIMSTYLE3
 70
     0
 41
3.302
 44
0.0
 45
0.000000001
 78
    12
 79
     3
140
3.175
144
5.0
147
0.79375
172
     1
173
     1
178
     0
271
     2
272
     2
276
     2
284
    12
289
     0
340
98
  0
DIMSTYLE
105
15B
102
{ACAD_REACTORS
330
15A
330
173
102
}
330
A
100
AcDbSymbolTableRecord
100
AcDbDimStyleTableRecord
  2
SLDDIMSTYLE4
 70
     0
 41
3.302
 44
0.0
 45
0.000000001
 78
    12
 79
     3
140
3.175
144
5.0
147
0.79375
173
     1
178
     0
271
     2
272
     2
276
     2
284
    12
340
98
  0
ENDTAB
  0
TABLE
  2
BLOCK_RECORD
  5
1
330
0
100
AcDbSymbolTable
 70
    21
  0
BLOCK_RECORD
  5
1F
330
1
100
AcDbSymbolTableRecord
100
AcDbBlockTableRecord
  2
*Model_Space
340
22
  0
BLOCK_RECORD
  5
1B
330
1
100
AcDbSymbolTableRecord
100
AcDbBlockTableRecord
  2
*Paper_Space
340
1E
  0
BLOCK_RECORD
  5
23
330
1
100
AcDbSymbolTableRecord
100
AcDbBlockTableRecord
  2
*Paper_Space0
340
26
  0
BLOCK_RECORD
  5
95
330
1
100
AcDbSymbolTableRecord
100
AcDbBlockTableRecord
  2
SW_NOTE_0
340
0
102
{BLKREFS
331
9C
102
}
  0
BLOCK_RECORD
  5
BC
330
1
100
AcDbSymbolTableRecord
100
AcDbBlockTableRecord
  2
SW_NOTE_1
340
0
102
{BLKREFS
331
C6
102
}
  0
BLOCK_RECORD
  5
C7
330
1
100
AcDbSymbolTableRecord
100
AcDbBlockTableRecord
  2
SW_NOTE_2
340
0
102
{BLKREFS
331
DA
102
}
  0
BLOCK_RECORD
  5
102
330
1
100
AcDbSymbolTableRecord
100
AcDbBlockTableRecord
  2
_D
340
0
  0
BLOCK_RECORD
  5
10D
330
1
100
AcDbSymbolTableRecord
100
AcDbBlockTableRecord
  2
_D_1
340
0
  0
BLOCK_RECORD
  5
118
330
1
100
AcDbSymbolTableRecord
100
AcDbBlockTableRecord
  2
_D_2
340
0
  0
BLOCK_RECORD
  5
123
330
1
100
AcDbSymbolTableRecord
100
AcDbBlockTableRecord
  2
_D_3
340
0
  0
BLOCK_RECORD
  5
12E
330
1
100
AcDbSymbolTableRecord
100
AcDbBlockTableRecord
  2
_D_4
340
0
  0
BLOCK_RECORD
  5
13A
330
1
100
AcDbSymbolTableRecord
100
AcDbBlockTableRecord
  2
_D_5
340
0
  0
BLOCK_RECORD
  5
143
330
1
100
AcDbSymbolTableRecord
100
AcDbBlockTableRecord
  2
_D_6
340
0
  0
BLOCK_RECORD
  5
14F
330
1
100
AcDbSymbolTableRecord
100
AcDbBlockTableRecord
  2
_D_7
340
0
  0
BLOCK_RECORD
  5
15C
330
1
100
AcDbSymbolTableRecord
100
AcDbBlockTableRecord
  2
_D_8
340
0
  0
BLOCK_RECORD
  5
168
330
1
100
AcDbSymbolTableRecord
100
AcDbBlockTableRecord
  2
_D_9
340
0
  0
BLOCK_RECORD
  5
174
330
1
100
AcDbSymbolTableRecord
100
AcDbBlockTableRecord
  2
_D_10
340
0
  0
BLOCK_RECORD
  5
17E
330
1
100
AcDbSymbolTableRecord
100
AcDbBlockTableRecord
  2
SW_CENTERMARKSYMBOL_0
340
0
102
{BLKREFS
331
189
102
}
  0
BLOCK_RECORD
  5
18A
330
1
100
AcDbSymbolTableRecord
100
AcDbBlockTableRecord
  2
SW_CENTERMARKSYMBOL_1
340
0
102
{BLKREFS
331
195
102
}
  0
BLOCK_RECORD
  5
196
330
1
100
AcDbSymbolTableRecord
100
AcDbBlockTableRecord
  2
SW_CENTERMARKSYMBOL_2
340
0
102
{BLKREFS
331
1A1
102
}
  0
BLOCK_RECORD
  5
1A2
330
1
100
AcDbSymbolTableRecord
100
AcDbBlockTableRecord
  2
SW_CENTERMARKSYMBOL_3
340
0
102
{BLKREFS
331
1AD
102
}
  0
BLOCK_RECORD
  5
1AE
330
1
100
AcDbSymbolTableRecord
100
AcDbBlockTableRecord
  2
SW_CENTERMARKSYMBOL_4
340
0
102
{BLKREFS
331
1B9
102
}
  0
BLOCK_RECORD
  5
1DD
330
1
100
AcDbSymbolTableRecord
100
AcDbBlockTableRecord
  2
_D_11
340
0
  0
ENDTAB
  0
ENDSEC
  0
SECTION
  2
BLOCKS
  0
BLOCK
  5
20
330
1F
100
AcDbEntity
  8
0
100
AcDbBlockBegin
  2
*Model_Space
 70
     0
 10
0.0
 20
0.0
 30
0.0
  3
*Model_Space
  1

  0
ENDBLK
  5
21
330
1F
100
AcDbEntity
  8
0
100
AcDbBlockEnd
  0
BLOCK
  5
1C
330
1B
100
AcDbEntity
 67
     1
  8
0
100
AcDbBlockBegin
  2
*Paper_Space
 70
     0
 10
0.0
 20
0.0
 30
0.0
  3
*Paper_Space
  1

  0
ENDBLK
  5
1D
330
1B
100
AcDbEntity
 67
     1
  8
0
100
AcDbBlockEnd
  0
BLOCK
  5
24
330
23
100
AcDbEntity
  8
0
100
AcDbBlockBegin
  2
*Paper_Space0
 70
     0
 10
0.0
 20
0.0
 30
0.0
  3
*Paper_Space0
  1

  0
ENDBLK
  5
25
330
23
100
AcDbEntity
  8
0
100
AcDbBlockEnd
  0
BLOCK
  5
96
330
95
100
AcDbEntity
  8
0
100
AcDbBlockBegin
  2
SW_NOTE_0
 70
     0
 10
0.0
 20
0.0
 30
0.0
  3
SW_NOTE_0
  1

  0
MTEXT
  5
99
330
95
100
AcDbEntity
  8
0
  6
Continuous
 62
     0
370
     0
100
AcDbMText
 10
0.0
 20
4.5117370892
 30
0.0
 40
3.5
 41
0.0
 71
     1
 72
     1
  1
NOTES:
  7
SLDTEXTSTYLE0
 73
     1
 44
1.0
  0
MTEXT
  5
9A
330
95
100
AcDbEntity
  8
0
  6
Continuous
 62
     0
370
     0
100
AcDbMText
 10
9.9999997765
 20
-1.1522549571
 30
0.0
 40
3.4395833333
 41
0.0
 71
     1
 72
     1
  1
MATERIAL: ACRYLIC
  7
SLDTEXTSTYLE0
 73
     1
 44
1.0
  0
MTEXT
  5
9B
330
95
100
AcDbEntity
  8
0
  6
Continuous
 62
     0
370
     0
100
AcDbMText
 10
0.0
 20
-1.1522549571
 30
0.0
 40
3.4395833333
 41
0.0
 71
     1
 72
     1
  1
1.
  7
SLDTEXTSTYLE0
 73
     1
 44
1.0
  0
ENDBLK
  5
97
330
95
100
AcDbEntity
  8
0
100
AcDbBlockEnd
  0
BLOCK
  5
BD
330
BC
100
AcDbEntity
  8
0
100
AcDbBlockBegin
  2
SW_NOTE_1
 70
     0
 10
0.0
 20
0.0
 30
0.0
  3
SW_NOTE_1
  1

  0
MTEXT
  5
BF
330
BC
100
AcDbEntity
  8
0
  6
Continuous
 62
     0
370
     0
100
AcDbMText
 10
0.0
 20
1.9645392354
 30
0.0
 40
1.524
 41
0.0
 71
     1
 72
     1
  1
THE INFORMATION CONTAINED IN THIS
  7
SLDTEXTSTYLE0
 73
     1
 44
1.0
  0
MTEXT
  5
C0
330
BC
100
AcDbEntity
  8
0
  6
Continuous
 62
     0
370
     0
100
AcDbMText
 10
0.0
 20
-0.5594606586
 30
0.0
 40
1.524
 41
0.0
 71
     1
 72
     1
  1
DRAWING IS THE SOLE PROPERTY OF
  7
SLDTEXTSTYLE0
 73
     1
 44
1.0
  0
MTEXT
  5
C1
330
BC
100
AcDbEntity
  8
0
  6
Continuous
 62
     0
370
     0
100
AcDbMText
 10
0.0
 20
-3.0834605527
 30
0.0
 40
1.524
 41
0.0
 71
     1
 72
     1
  1
<INSERT COMPANY NAME HERE>.  ANY
  7
SLDTEXTSTYLE0
 73
     1
 44
1.0
  0
MTEXT
  5
C2
330
BC
100
AcDbEntity
  8
0
  6
Continuous
 62
     0
370
     0
100
AcDbMText
 10
0.0
 20
-5.6074604467
 30
0.0
 40
1.524
 41
0.0
 71
     1
 72
     1
  1
REPRODUCTION IN PART OR AS A WHOLE
  7
SLDTEXTSTYLE0
 73
     1
 44
1.0
  0
MTEXT
  5
C3
330
BC
100
AcDbEntity
  8
0
  6
Continuous
 62
     0
370
     0
100
AcDbMText
 10
0.0
 20
-8.1314603407
 30
0.0
 40
1.524
 41
0.0
 71
     1
 72
     1
  1
WITHOUT THE WRITTEN PERMISSION OF
  7
SLDTEXTSTYLE0
 73
     1
 44
1.0
  0
MTEXT
  5
C4
330
BC
100
AcDbEntity
  8
0
  6
Continuous
 62
     0
370
     0
100
AcDbMText
 10
0.0
 20
-10.6554602348
 30
0.0
 40
1.524
 41
0.0
 71
     1
 72
     1
  1
<INSERT COMPANY NAME HERE> IS
  7
SLDTEXTSTYLE0
 73
     1
 44
1.0
  0
MTEXT
  5
C5
330
BC
100
AcDbEntity
  8
0
  6
Continuous
 62
     0
370
     0
100
AcDbMText
 10
0.0
 20
-13.1794601288
 30
0.0
 40
1.524
 41
0.0
 71
     1
 72
     1
  1
PROHIBITED.
  7
SLDTEXTSTYLE0
 73
     1
 44
1.0
  0
ENDBLK
  5
BE
330
BC
100
AcDbEntity
  8
0
100
AcDbBlockEnd
  0
BLOCK
  5
C8
330
C7
100
AcDbEntity
  8
0
100
AcDbBlockBegin
  2
SW_NOTE_2
 70
     0
 10
0.0
 20
0.0
 30
0.0
  3
SW_NOTE_2
  1

  0
MTEXT
  5
CA
330
C7
100
AcDbEntity
  8
0
  6
Continuous
 62
     0
370
     0
100
AcDbMText
 10
0.0
 20
2.7285267159
 30
0.0
 40
2.1166666667
 41
0.0
 71
     1
 72
     1
  1
DIMENSIONAL TOLERANCES:
  7
SLDTEXTSTYLE0
 73
     1
 44
1.0
  0
MTEXT
  5
CB
330
C7
100
AcDbEntity
  8
0
  6
Continuous
 62
     0
370
     0
100
AcDbMText
 10
0.0
 20
-0.0936954723
 30
0.0
 40
2.1166666667
 41
0.0
 71
     1
 72
     1
  1
BEND ANGLE:
  7
SLDTEXTSTYLE0
 73
     1
 44
1.0
  0
MTEXT
  5
CC
330
C7
100
AcDbEntity
  8
0
  6
Continuous
 62
     0
370
     0
100
AcDbMText
 10
18.6604745686
 20
-0.0936954723
 30
0.0
 40
2.1166666667
 41
0.0
 71
     1
 72
     1
  1
%%p
  7
SLDTEXTSTYLE0
 73
     1
 44
1.0
  0
MTEXT
  5
CD
330
C7
100
AcDbEntity
  8
0
  6
Continuous
 62
     0
370
     0
100
AcDbMText
 10
22.2658637404
 20
-0.0936954723
 30
0.0
 40
2.1166666667
 41
0.0
 71
     1
 72
     1
  1
1DEGREE
  7
SLDTEXTSTYLE0
 73
     1
 44
1.0
  0
MTEXT
  5
CE
330
C7
100
AcDbEntity
  8
0
  6
Continuous
 62
     0
370
     0
100
AcDbMText
 10
0.0
 20
-2.9159176604
 30
0.0
 40
2.1166666667
 41
0.0
 71
     1
 72
     1
  1
X:
  7
SLDTEXTSTYLE0
 73
     1
 44
1.0
  0
MTEXT
  5
CF
330
C7
100
AcDbEntity
  8
0
  6
Continuous
 62
     0
370
     0
100
AcDbMText
 10
8.6587341502
 20
-2.9159176604
 30
0.0
 40
2.1166666667
 41
0.0
 71
     1
 72
     1
  1
%%p
  7
SLDTEXTSTYLE0
 73
     1
 44
1.0
  0
MTEXT
  5
D0
330
C7
100
AcDbEntity
  8
0
  6
Continuous
 62
     0
370
     0
100
AcDbMText
 10
12.2641233221
 20
-2.9159176604
 30
0.0
 40
2.1166666667
 41
0.0
 71
     1
 72
     1
  1
1.0
  7
SLDTEXTSTYLE0
 73
     1
 44
1.0
  0
MTEXT
  5
D1
330
C7
100
AcDbEntity
  8
0
  6
Continuous
 62
     0
370
     0
100
AcDbMText
 10
0.0
 20
-5.7381398485
 30
0.0
 40
2.1166666667
 41
0.0
 71
     1
 72
     1
  1
X.X:
  7
SLDTEXTSTYLE0
 73
     1
 44
1.0
  0
MTEXT
  5
D2
330
C7
100
AcDbEntity
  8
0
  6
Continuous
 62
     0
370
     0
100
AcDbMText
 10
8.7371291593
 20
-5.7381398485
 30
0.0
 40
2.1166666667
 41
0.0
 71
     1
 72
     1
  1
%%p
  7
SLDTEXTSTYLE0
 73
     1
 44
1.0
  0
MTEXT
  5
D3
330
C7
100
AcDbEntity
  8
0
  6
Continuous
 62
     0
370
     0
100
AcDbMText
 10
12.3425183311
 20
-5.7381398485
 30
0.0
 40
2.1166666667
 41
0.0
 71
     1
 72
     1
  1
0.5
  7
SLDTEXTSTYLE0
 73
     1
 44
1.0
  0
MTEXT
  5
D4
330
C7
100
AcDbEntity
  8
0
  6
Continuous
 62
     0
370
     0
100
AcDbMText
 10
0.0
 20
-8.5603620366
 30
0.0
 40
2.1166666667
 41
0.0
 71
     1
 72
     1
  1
X.XX:
  7
SLDTEXTSTYLE0
 73
     1
 44
1.0
  0
MTEXT
  5
D5
330
C7
100
AcDbEntity
  8
0
  6
Continuous
 62
     0
370
     0
100
AcDbMText
 10
8.8708912954
 20
-8.5603620366
 30
0.0
 40
2.1166666667
 41
0.0
 71
     1
 72
     1
  1
%%p
  7
SLDTEXTSTYLE0
 73
     1
 44
1.0
  0
MTEXT
  5
D6
330
C7
100
AcDbEntity
  8
0
  6
Continuous
 62
     0
370
     0
100
AcDbMText
 10
12.4762795359
 20
-8.5603620366
 30
0.0
 40
2.1166666667
 41
0.0
 71
     1
 72
     1
  1
0.25
  7
SLDTEXTSTYLE0
 73
     1
 44
1.0
  0
MTEXT
  5
D7
330
C7
100
AcDbEntity
  8
0
  6
Continuous
 62
     0
370
     0
100
AcDbMText
 10
0.0
 20
-11.3825842247
 30
0.0
 40
2.1166666667
 41
0.0
 71
     1
 72
     1
  1
X.XXX:
  7
SLDTEXTSTYLE0
 73
     1
 44
1.0
  0
MTEXT
  5
D8
330
C7
100
AcDbEntity
  8
0
  6
Continuous
 62
     0
370
     0
100
AcDbMText
 10
9.0046525002
 20
-11.3825842247
 30
0.0
 40
2.1166666667
 41
0.0
 71
     1
 72
     1
  1
%%p
  7
SLDTEXTSTYLE0
 73
     1
 44
1.0
  0
MTEXT
  5
D9
330
C7
100
AcDbEntity
  8
0
  6
Continuous
 62
     0
370
     0
100
AcDbMText
 10
12.610041672
 20
-11.3825842247
 30
0.0
 40
2.1166666667
 41
0.0
 71
     1
 72
     1
  1
0.125
  7
SLDTEXTSTYLE0
 73
     1
 44
1.0
  0
ENDBLK
  5
C9
330
C7
100
AcDbEntity
  8
0
100
AcDbBlockEnd
  0
BLOCK
  5
103
330
102
100
AcDbEntity
  8
0
100
AcDbBlockBegin
  2
_D
 70
     0
 10
0.0
 20
0.0
 30
0.0
  3
_D
  1

  0
SOLID
  5
105
330
102
100
AcDbEntity
  8
0
  6
Continuous
 62
     7
370
    18
100
AcDbTrace
 10
100.8858682965
 20
146.8202907069
 30
0.0
 11
104.1878682965
 21
146.3122907069
 31
0.0
 12
104.1878682965
 22
147.3282907069
 32
0.0
 13
104.1878682965
 23
147.3282907069
 33
0.0
  0
SOLID
  5
106
330
102
100
AcDbEntity
  8
0
  6
Continuous
 62
     7
370
    18
100
AcDbTrace
 10
110.0858682965
 20
146.8202907069
 30
0.0
 11
106.7838682965
 21
147.3282907069
 31
0.0
 12
106.7838682965
 22
146.3122907069
 32
0.0
 13
106.7838682965
 23
146.3122907069
 33
0.0
  0
LINE
  5
107
330
102
100
AcDbEntity
  8
0
  6
Continuous
 62
     7
370
    18
100
AcDbLine
 10
100.8858682965
 20
164.5258606788
 30
0.0
 11
100.8858682965
 21
143.6452907069
 31
0.0
  0
LINE
  5
108
330
102
100
AcDbEntity
  8
0
  6
Continuous
 62
     7
370
    18
100
AcDbLine
 10
110.0858682965
 20
100.2238606788
 30
0.0
 11
110.0858682965
 21
149.9952907069
 31
0.0
  0
LINE
  5
109
330
102
100
AcDbEntity
  8
0
  6
Continuous
 62
     7
370
    18
100
AcDbLine
 10
100.8858682965
 20
146.8202907069
 30
0.0
 11
92.8615626868
 21
146.8202907069
 31
0.0
  0
LINE
  5
10A
330
102
100
AcDbEntity
  8
0
  6
Continuous
 62
     7
370
    18
100
AcDbLine
 10
110.0858682965
 20
146.8202907069
 30
0.0
 11
100.8858682965
 21
146.8202907069
 31
0.0
  0
MTEXT
  5
10B
330
102
100
AcDbEntity
  8
0
  6
Continuous
 62
     7
370
    18
100
AcDbMText
 10
82.30468789
 20
148.3929248042
 30
0.0
 40
3.175
 41
0.0
 71
     1
 72
     1
  1
46.00
  7
SLDTEXTSTYLE0
 73
     1
 44
1.0
  0
ENDBLK
  5
104
330
102
100
AcDbEntity
  8
0
100
AcDbBlockEnd
  0
BLOCK
  5
10E
330
10D
100
AcDbEntity
  8
0
100
AcDbBlockBegin
  2
_D_1
 70
     0
 10
0.0
 20
0.0
 30
0.0
  3
_D_1
  1

  0
SOLID
  5
110
330
10D
100
AcDbEntity
  8
0
  6
Continuous
 62
     7
370
    18
100
AcDbTrace
 10
100.8858682965
 20
125.7958606788
 30
0.0
 11
104.1878682965
 21
125.2878606788
 31
0.0
 12
104.1878682965
 22
126.3038606788
 32
0.0
 13
104.1878682965
 23
126.3038606788
 33
0.0
  0
SOLID
  5
111
330
10D
100
AcDbEntity
  8
0
  6
Continuous
 62
     7
370
    18
100
AcDbTrace
 10
209.6658682965
 20
125.7958606788
 30
0.0
 11
206.3638682965
 21
126.3038606788
 31
0.0
 12
206.3638682965
 22
125.2878606788
 32
0.0
 13
206.3638682965
 23
125.2878606788
 33
0.0
  0
LINE
  5
112
330
10D
100
AcDbEntity
  8
0
  6
Continuous
 62
     7
370
    18
100
AcDbLine
 10
100.8858682965
 20
164.5258606788
 30
0.0
 11
100.8858682965
 21
122.6208606788
 31
0.0
  0
LINE
  5
113
330
10D
100
AcDbEntity
  8
0
  6
Continuous
 62
     7
370
    18
100
AcDbLine
 10
100.8858682965
 20
125.7958606788
 30
0.0
 11
150.0609142505
 21
125.7958606788
 31
0.0
  0
LINE
  5
114
330
10D
100
AcDbEntity
  8
0
  6
Continuous
 62
     7
370
    18
100
AcDbLine
 10
209.6658682965
 20
125.7958606788
 30
0.0
 11
162.9637608104
 21
125.7958606788
 31
0.0
  0
MTEXT
  5
115
330
10D
100
AcDbEntity
  8
0
  6
Continuous
 62
     7
370
    18
100
AcDbMText
 10
150.0609142505
 20
127.368494776
 30
0.0
 40
3.175
 41
0.0
 71
     1
 72
     1
  1
543.90
  7
SLDTEXTSTYLE0
 73
     1
 44
1.0
  0
ENDBLK
  5
10F
330
10D
100
AcDbEntity
  8
0
100
AcDbBlockEnd
  0
BLOCK
  5
119
330
118
100
AcDbEntity
  8
0
100
AcDbBlockBegin
  2
_D_2
 70
     0
 10
0.0
 20
0.0
 30
0.0
  3
_D_2
  1

  0
SOLID
  5
11B
330
118
100
AcDbEntity
  8
0
  6
Continuous
 62
     7
370
    18
100
AcDbTrace
 10
57.70449602
 20
88.1458606788
 30
0.0
 11
57.19649602
 21
84.8438606788
 31
0.0
 12
58.21249602
 22
84.8438606788
 32
0.0
 13
58.21249602
 23
84.8438606788
 33
0.0
  0
SOLID
  5
11C
330
118
100
AcDbEntity
  8
0
  6
Continuous
 62
     7
370
    18
100
AcDbTrace
 10
57.70449602
 20
95.4458606788
 30
0.0
 11
58.21249602
 21
98.7478606788
 31
0.0
 12
57.19649602
 22
98.7478606788
 32
0.0
 13
57.19649602
 23
98.7478606788
 33
0.0
  0
LINE
  5
11D
330
118
100
AcDbEntity
  8
0
  6
Continuous
 62
     7
370
    18
100
AcDbLine
 10
100.4158682965
 20
88.1458606788
 30
0.0
 11
54.52949602
 21
88.1458606788
 31
0.0
  0
LINE
  5
11E
330
118
100
AcDbEntity
  8
0
  6
Continuous
 62
     7
370
    18
100
AcDbLine
 10
105.3078682965
 20
95.4458606788
 30
0.0
 11
54.52949602
 21
95.4458606788
 31
0.0
  0
LINE
  5
11F
330
118
100
AcDbEntity
  8
0
  6
Continuous
 62
     7
370
    18
100
AcDbLine
 10
57.70449602
 20
88.1458606788
 30
0.0
 11
57.70449602
 21
81.7958606788
 31
0.0
  0
LINE
  5
120
330
118
100
AcDbEntity
  8
0
  6
Continuous
 62
     7
370
    18
100
AcDbLine
 10
57.70449602
 20
95.4458606788
 30
0.0
 11
57.70449602
 21
101.7958606788
 31
0.0
  0
MTEXT
  5
121
330
118
100
AcDbEntity
  8
0
  6
Continuous
 62
     7
370
    18
100
AcDbMText
 10
52.4260586216
 20
92.3829454534
 30
0.0
 40
3.175
 41
0.0
 71
     1
 72
     1
  1
36.50
  7
SLDTEXTSTYLE0
 73
     1
 44
1.0
  0
ENDBLK
  5
11A
330
118
100
AcDbEntity
  8
0
100
AcDbBlockEnd
  0
BLOCK
  5
124
330
123
100
AcDbEntity
  8
0
100
AcDbBlockBegin
  2
_D_3
 70
     0
 10
0.0
 20
0.0
 30
0.0
  3
_D_3
  1

  0
SOLID
  5
126
330
123
100
AcDbEntity
  8
0
  6
Continuous
 62
     7
370
    18
100
AcDbTrace
 10
27.2265711825
 20
88.1458606788
 30
0.0
 11
27.7345711825
 21
91.4478606788
 31
0.0
 12
26.7185711825
 22
91.4478606788
 32
0.0
 13
26.7185711825
 23
91.4478606788
 33
0.0
  0
SOLID
  5
127
330
123
100
AcDbEntity
  8
0
  6
Continuous
 62
     7
370
    18
100
AcDbTrace
 10
27.2265711825
 20
166.8258606788
 30
0.0
 11
26.7185711825
 21
163.5238606788
 31
0.0
 12
27.7345711825
 22
163.5238606788
 32
0.0
 13
27.7345711825
 23
163.5238606788
 33
0.0
  0
LINE
  5
128
330
123
100
AcDbEntity
  8
0
  6
Continuous
 62
     7
370
    18
100
AcDbLine
 10
100.4158682965
 20
88.1458606788
 30
0.0
 11
24.0515711825
 21
88.1458606788
 31
0.0
  0
LINE
  5
129
330
123
100
AcDbEntity
  8
0
  6
Continuous
 62
     7
370
    18
100
AcDbLine
 10
100.2158682965
 20
166.8258606788
 30
0.0
 11
24.0515711825
 21
166.8258606788
 31
0.0
  0
LINE
  5
12A
330
123
100
AcDbEntity
  8
0
  6
Continuous
 62
     7
370
    18
100
AcDbLine
 10
27.2265711825
 20
88.1458606788
 30
0.0
 11
27.2265711825
 21
136.1428457517
 31
0.0
  0
LINE
  5
12B
330
123
100
AcDbEntity
  8
0
  6
Continuous
 62
     7
370
    18
100
AcDbLine
 10
27.2265711825
 20
166.8258606788
 30
0.0
 11
27.2265711825
 21
141.1831584032
 31
0.0
  0
MTEXT
  5
12C
330
123
100
AcDbEntity
  8
0
  6
Continuous
 62
     7
370
    18
100
AcDbMText
 10
20.7751479026
 20
140.2356361747
 30
0.0
 40
3.175
 41
0.0
 71
     1
 72
     1
  1
393.40
  7
SLDTEXTSTYLE0
 73
     1
 44
1.0
  0
ENDBLK
  5
125
330
123
100
AcDbEntity
  8
0
100
AcDbBlockEnd
  0
BLOCK
  5
12F
330
12E
100
AcDbEntity
  8
0
100
AcDbBlockBegin
  2
_D_4
 70
     0
 10
0.0
 20
0.0
 30
0.0
  3
_D_4
  1

  0
SOLID
  5
131
330
12E
100
AcDbEntity
  8
0
  6
Continuous
 62
     7
370
    18
100
AcDbTrace
 10
249.6658682965
 20
195.1258606788
 30
0.0
 11
249.1578682965
 21
191.8238606788
 31
0.0
 12
250.1738682965
 22
191.8238606788
 32
0.0
 13
250.1738682965
 23
191.8238606788
 33
0.0
  0
SOLID
  5
132
330
12E
100
AcDbEntity
  8
0
  6
Continuous
 62
     7
370
    18
100
AcDbTrace
 10
249.6658682965
 20
88.1458606788
 30
0.0
 11
250.1738682965
 21
91.4478606788
 31
0.0
 12
249.1578682965
 22
91.4478606788
 32
0.0
 13
249.1578682965
 23
91.4478606788
 33
0.0
  0
LINE
  5
133
330
12E
100
AcDbEntity
  8
0
  6
Continuous
 62
     7
370
    18
100
AcDbLine
 10
210.1358682965
 20
195.1258606788
 30
0.0
 11
252.8408682965
 21
195.1258606788
 31
0.0
  0
LINE
  5
134
330
12E
100
AcDbEntity
  8
0
  6
Continuous
 62
     7
370
    18
100
AcDbLine
 10
210.1358682965
 20
88.1458606788
 30
0.0
 11
252.8408682965
 21
88.1458606788
 31
0.0
  0
LINE
  5
135
330
12E
100
AcDbEntity
  8
0
  6
Continuous
 62
     7
370
    18
100
AcDbLine
 10
249.6658682965
 20
195.1258606788
 30
0.0
 11
249.6658682965
 21
131.8217019127
 31
0.0
  0
LINE
  5
136
330
12E
100
AcDbEntity
  8
0
  6
Continuous
 62
     7
370
    18
100
AcDbLine
 10
249.6658682965
 20
88.1458606788
 30
0.0
 11
249.6658682965
 21
126.7813892611
 31
0.0
  0
MTEXT
  5
137
330
12E
100
AcDbEntity
  8
0
  6
Continuous
 62
     7
370
    18
100
AcDbMText
 10
243.2144450165
 20
130.8741796842
 30
0.0
 40
3.175
 41
0.0
 71
     1
 72
     1
  1
534.90
  7
SLDTEXTSTYLE0
 73
     1
 44
1.0
  0
ENDBLK
  5
130
330
12E
100
AcDbEntity
  8
0
100
AcDbBlockEnd
  0
BLOCK
  5
13B
330
13A
100
AcDbEntity
  8
0
100
AcDbBlockBegin
  2
_D_5
 70
     0
 10
0.0
 20
0.0
 30
0.0
  3
_D_5
  1

  0
SOLID
  5
13D
330
13A
100
AcDbEntity
  8
0
  6
Continuous
 62
     7
370
    18
100
AcDbTrace
 10
111.4816687737
 20
98.1013721225
 30
0.0
 11
113.4676464368
 21
100.7878495041
 31
0.0
 12
112.5683132279
 22
101.260560599
 32
0.0
 13
112.5683132279
 23
101.260560599
 33
0.0
  0
LINE
  5
13E
330
13A
100
AcDbEntity
  8
0
  6
Continuous
 62
     7
370
    18
100
AcDbLine
 10
111.4816687737
 20
98.1013721225
 30
0.0
 11
116.0455982016
 21
106.7842512455
 31
0.0
  0
LINE
  5
13F
330
13A
100
AcDbEntity
  8
0
  6
Continuous
 62
     7
370
    18
100
AcDbLine
 10
116.0455982016
 20
106.7842512455
 30
0.0
 11
122.3955982016
 21
106.7842512455
 31
0.0
  0
MTEXT
  5
140
330
13A
100
AcDbEntity
  8
0
  6
Continuous
 62
     7
370
    18
100
AcDbMText
 10
122.3955982016
 20
108.3243156535
 30
0.0
 40
3.175
 41
0.0
 71
     1
 72
     1
  1
%%c
  7
SLDTEXTSTYLE0
 73
     1
 44
1.0
  0
MTEXT
  5
141
330
13A
100
AcDbEntity
  8
0
  6
Continuous
 62
     7
370
    18
100
AcDbMText
 10
127.1838949644
 20
108.3728226003
 30
0.0
 40
3.175
 41
0.0
 71
     1
 72
     1
  1
30.0
  7
SLDTEXTSTYLE0
 73
     1
 44
1.0
  0
ENDBLK
  5
13C
330
13A
100
AcDbEntity
  8
0
100
AcDbBlockEnd
  0
BLOCK
  5
144
330
143
100
AcDbEntity
  8
0
100
AcDbBlockBegin
  2
_D_6
 70
     0
 10
0.0
 20
0.0
 30
0.0
  3
_D_6
  1

  0
SOLID
  5
146
330
143
100
AcDbEntity
  8
0
  6
Continuous
 62
     7
370
    18
100
AcDbTrace
 10
230.8658682965
 20
88.1458606788
 30
0.0
 11
231.3738682965
 21
91.4478606788
 31
0.0
 12
230.3578682965
 22
91.4478606788
 32
0.0
 13
230.3578682965
 23
91.4478606788
 33
0.0
  0
SOLID
  5
147
330
143
100
AcDbEntity
  8
0
  6
Continuous
 62
     7
370
    18
100
AcDbTrace
 10
230.8658682965
 20
190.6258606788
 30
0.0
 11
230.3578682965
 21
187.3238606788
 31
0.0
 12
231.3738682965
 22
187.3238606788
 32
0.0
 13
231.3738682965
 23
187.3238606788
 33
0.0
  0
LINE
  5
148
330
143
100
AcDbEntity
  8
0
  6
Continuous
 62
     7
370
    18
100
AcDbLine
 10
210.1358682965
 20
88.1458606788
 30
0.0
 11
234.0408682965
 21
88.1458606788
 31
0.0
  0
LINE
  5
149
330
143
100
AcDbEntity
  8
0
  6
Continuous
 62
     7
370
    18
100
AcDbLine
 10
210.7280130386
 20
190.6258606788
 30
0.0
 11
234.0408682965
 21
190.6258606788
 31
0.0
  0
LINE
  5
14A
330
143
100
AcDbEntity
  8
0
  6
Continuous
 62
     7
370
    18
100
AcDbLine
 10
230.8658682965
 20
88.1458606788
 30
0.0
 11
230.8658682965
 21
131.6158887093
 31
0.0
  0
LINE
  5
14B
330
143
100
AcDbEntity
  8
0
  6
Continuous
 62
     7
370
    18
100
AcDbLine
 10
230.8658682965
 20
190.6258606788
 30
0.0
 11
230.8658682965
 21
136.6562013609
 31
0.0
  0
MTEXT
  5
14C
330
143
100
AcDbEntity
  8
0
  6
Continuous
 62
     7
370
    18
100
AcDbMText
 10
224.4144450165
 20
135.7086791324
 30
0.0
 40
3.175
 41
0.0
 71
     1
 72
     1
  1
512.40
  7
SLDTEXTSTYLE0
 73
     1
 44
1.0
  0
ENDBLK
  5
145
330
143
100
AcDbEntity
  8
0
100
AcDbBlockEnd
  0
BLOCK
  5
150
330
14F
100
AcDbEntity
  8
0
100
AcDbBlockBegin
  2
_D_7
 70
     0
 10
0.0
 20
0.0
 30
0.0
  3
_D_7
  1

  0
SOLID
  5
152
330
14F
100
AcDbEntity
  8
0
  6
Continuous
 62
     7
370
    18
100
AcDbTrace
 10
100.8858682965
 20
78.9458606788
 30
0.0
 11
97.5838682965
 21
79.4538606788
 31
0.0
 12
97.5838682965
 22
78.4378606788
 32
0.0
 13
97.5838682965
 23
78.4378606788
 33
0.0
  0
SOLID
  5
153
330
14F
100
AcDbEntity
  8
0
  6
Continuous
 62
     7
370
    18
100
AcDbTrace
 10
102.1358682965
 20
78.9458606788
 30
0.0
 11
105.4378682965
 21
78.4378606788
 31
0.0
 12
105.4378682965
 22
79.4538606788
 32
0.0
 13
105.4378682965
 23
79.4538606788
 33
0.0
  0
LINE
  5
154
330
14F
100
AcDbEntity
  8
0
  6
Continuous
 62
     7
370
    18
100
AcDbLine
 10
100.8858682965
 20
87.6758606788
 30
0.0
 11
100.8858682965
 21
75.7708606788
 31
0.0
  0
LINE
  5
155
330
14F
100
AcDbEntity
  8
0
  6
Continuous
 62
     7
370
    18
100
AcDbLine
 10
102.1358682965
 20
90.3678606788
 30
0.0
 11
102.1358682965
 21
75.7708606788
 31
0.0
  0
LINE
  5
156
330
14F
100
AcDbEntity
  8
0
  6
Continuous
 62
     7
370
    18
100
AcDbLine
 10
100.8858682965
 20
78.9458606788
 30
0.0
 11
95.7286907026
 21
78.9458606788
 31
0.0
  0
LINE
  5
157
330
14F
100
AcDbEntity
  8
0
  6
Continuous
 62
     7
370
    18
100
AcDbLine
 10
102.1358682965
 20
78.9458606788
 30
0.0
 11
108.4858682965
 21
78.9458606788
 31
0.0
  0
MTEXT
  5
158
330
14F
100
AcDbEntity
  8
0
  6
Continuous
 62
     7
370
    18
100
AcDbMText
 10
81.419142861
 20
80.518494776
 30
0.0
 40
3.175
 41
0.0
 71
     1
 72
     1
  1
2X
  7
SLDTEXTSTYLE0
 73
     1
 44
1.0
  0
MTEXT
  5
159
330
14F
100
AcDbEntity
  8
0
  6
Continuous
 62
     7
370
    18
100
AcDbMText
 10
87.5177886003
 20
80.518494776
 30
0.0
 40
3.175
 41
0.0
 71
     1
 72
     1
  1
6.25
  7
SLDTEXTSTYLE0
 73
     1
 44
1.0
  0
ENDBLK
  5
151
330
14F
100
AcDbEntity
  8
0
100
AcDbBlockEnd
  0
BLOCK
  5
15D
330
15C
100
AcDbEntity
  8
0
100
AcDbBlockBegin
  2
_D_8
 70
     0
 10
0.0
 20
0.0
 30
0.0
  3
_D_8
  1

  0
SOLID
  5
15F
330
15C
100
AcDbEntity
  8
0
  6
Continuous
 62
     7
370
    18
100
AcDbTrace
 10
100.8858682965
 20
66.1458606788
 30
0.0
 11
104.1878682965
 21
65.6378606788
 31
0.0
 12
104.1878682965
 22
66.6538606788
 32
0.0
 13
104.1878682965
 23
66.6538606788
 33
0.0
  0
SOLID
  5
160
330
15C
100
AcDbEntity
  8
0
  6
Continuous
 62
     7
370
    18
100
AcDbTrace
 10
208.4158682965
 20
66.1458606788
 30
0.0
 11
205.1138682965
 21
66.6538606788
 31
0.0
 12
205.1138682965
 22
65.6378606788
 32
0.0
 13
205.1138682965
 23
65.6378606788
 33
0.0
  0
LINE
  5
161
330
15C
100
AcDbEntity
  8
0
  6
Continuous
 62
     7
370
    18
100
AcDbLine
 10
100.8858682965
 20
87.6758606788
 30
0.0
 11
100.8858682965
 21
62.9708606788
 31
0.0
  0
LINE
  5
162
330
15C
100
AcDbEntity
  8
0
  6
Continuous
 62
     7
370
    18
100
AcDbLine
 10
208.4158682965
 20
91.8758606788
 30
0.0
 11
208.4158682965
 21
62.9708606788
 31
0.0
  0
LINE
  5
163
330
15C
100
AcDbEntity
  8
0
  6
Continuous
 62
     7
370
    18
100
AcDbLine
 10
100.8858682965
 20
66.1458606788
 30
0.0
 11
143.4871350806
 21
66.1458606788
 31
0.0
  0
LINE
  5
164
330
15C
100
AcDbEntity
  8
0
  6
Continuous
 62
     7
370
    18
100
AcDbLine
 10
208.4158682965
 20
66.1458606788
 30
0.0
 11
162.4886264484
 21
66.1458606788
 31
0.0
  0
MTEXT
  5
165
330
15C
100
AcDbEntity
  8
0
  6
Continuous
 62
     7
370
    18
100
AcDbMText
 10
143.4871350806
 20
67.718494776
 30
0.0
 40
3.175
 41
0.0
 71
     1
 72
     1
  1
2X
  7
SLDTEXTSTYLE0
 73
     1
 44
1.0
  0
MTEXT
  5
166
330
15C
100
AcDbEntity
  8
0
  6
Continuous
 62
     7
370
    18
100
AcDbMText
 10
149.5857808198
 20
67.718494776
 30
0.0
 40
3.175
 41
0.0
 71
     1
 72
     1
  1
537.65
  7
SLDTEXTSTYLE0
 73
     1
 44
1.0
  0
ENDBLK
  5
15E
330
15C
100
AcDbEntity
  8
0
100
AcDbBlockEnd
  0
BLOCK
  5
169
330
168
100
AcDbEntity
  8
0
100
AcDbBlockBegin
  2
_D_9
 70
     0
 10
0.0
 20
0.0
 30
0.0
  3
_D_9
  1

  0
SOLID
  5
16B
330
168
100
AcDbEntity
  8
0
  6
Continuous
 62
     7
370
    18
100
AcDbTrace
 10
73.8566375531
 20
88.1458606788
 30
0.0
 11
73.3486375531
 21
84.8438606788
 31
0.0
 12
74.3646375531
 22
84.8438606788
 32
0.0
 13
74.3646375531
 23
84.8438606788
 33
0.0
  0
SOLID
  5
16C
330
168
100
AcDbEntity
  8
0
  6
Continuous
 62
     7
370
    18
100
AcDbTrace
 10
73.8566375531
 20
93.1458606788
 30
0.0
 11
74.3646375531
 21
96.4478606788
 31
0.0
 12
73.3486375531
 22
96.4478606788
 32
0.0
 13
73.3486375531
 23
96.4478606788
 33
0.0
  0
LINE
  5
16D
330
168
100
AcDbEntity
  8
0
  6
Continuous
 62
     7
370
    18
100
AcDbLine
 10
100.4158682965
 20
88.1458606788
 30
0.0
 11
70.6816375531
 21
88.1458606788
 31
0.0
  0
LINE
  5
16E
330
168
100
AcDbEntity
  8
0
  6
Continuous
 62
     7
370
    18
100
AcDbLine
 10
100.8658682965
 20
93.1458606788
 30
0.0
 11
70.6816375531
 21
93.1458606788
 31
0.0
  0
LINE
  5
16F
330
168
100
AcDbEntity
  8
0
  6
Continuous
 62
     7
370
    18
100
AcDbLine
 10
73.8566375531
 20
88.1458606788
 30
0.0
 11
73.8566375531
 21
81.7958606788
 31
0.0
  0
LINE
  5
170
330
168
100
AcDbEntity
  8
0
  6
Continuous
 62
     7
370
    18
100
AcDbLine
 10
73.8566375531
 20
93.1458606788
 30
0.0
 11
73.8566375531
 21
99.4958606788
 31
0.0
  0
MTEXT
  5
171
330
168
100
AcDbEntity
  8
0
  6
Continuous
 62
     7
370
    18
100
AcDbMText
 10
65.5288777507
 20
92.3829454534
 30
0.0
 40
3.175
 41
0.0
 71
     1
 72
     1
  1
2X
  7
SLDTEXTSTYLE0
 73
     1
 44
1.0
  0
MTEXT
  5
172
330
168
100
AcDbEntity
  8
0
  6
Continuous
 62
     7
370
    18
100
AcDbMText
 10
71.62752349
 20
92.3829454534
 30
0.0
 40
3.175
 41
0.0
 71
     1
 72
     1
  1
25.00
  7
SLDTEXTSTYLE0
 73
     1
 44
1.0
  0
ENDBLK
  5
16A
330
168
100
AcDbEntity
  8
0
100
AcDbBlockEnd
  0
BLOCK
  5
175
330
174
100
AcDbEntity
  8
0
100
AcDbBlockBegin
  2
_D_10
 70
     0
 10
0.0
 20
0.0
 30
0.0
  3
_D_10
  1

  0
SOLID
  5
177
330
174
100
AcDbEntity
  8
0
  6
Continuous
 62
     7
370
    18
100
AcDbTrace
 10
45.2256380375
 20
165.1958606788
 30
0.0
 11
44.7176380375
 21
161.8938606788
 31
0.0
 12
45.7336380375
 22
161.8938606788
 32
0.0
 13
45.7336380375
 23
161.8938606788
 33
0.0
  0
SOLID
  5
178
330
174
100
AcDbEntity
  8
0
  6
Continuous
 62
     7
370
    18
100
AcDbTrace
 10
45.2256380375
 20
88.1458606788
 30
0.0
 11
45.7336380375
 21
91.4478606788
 31
0.0
 12
44.7176380375
 22
91.4478606788
 32
0.0
 13
44.7176380375
 23
91.4478606788
 33
0.0
  0
LINE
  5
179
330
174
100
AcDbEntity
  8
0
  6
Continuous
 62
     7
370
    18
100
AcDbLine
 10
99.8578682965
 20
165.1958606788
 30
0.0
 11
42.0506380375
 21
165.1958606788
 31
0.0
  0
LINE
  5
17A
330
174
100
AcDbEntity
  8
0
  6
Continuous
 62
     7
370
    18
100
AcDbLine
 10
100.4158682965
 20
88.1458606788
 30
0.0
 11
42.0506380375
 21
88.1458606788
 31
0.0
  0
LINE
  5
17B
330
174
100
AcDbEntity
  8
0
  6
Continuous
 62
     7
370
    18
100
AcDbLine
 10
45.2256380375
 20
165.1958606788
 30
0.0
 11
45.2256380375
 21
124.8751333183
 31
0.0
  0
LINE
  5
17C
330
174
100
AcDbEntity
  8
0
  6
Continuous
 62
     7
370
    18
100
AcDbLine
 10
45.2256380375
 20
88.1458606788
 30
0.0
 11
45.2256380375
 21
119.8348206667
 31
0.0
  0
MTEXT
  5
17D
330
174
100
AcDbEntity
  8
0
  6
Continuous
 62
     7
370
    18
100
AcDbMText
 10
38.7742147576
 20
123.9276110897
 30
0.0
 40
3.175
 41
0.0
 71
     1
 72
     1
  1
385.25
  7
SLDTEXTSTYLE0
 73
     1
 44
1.0
  0
ENDBLK
  5
176
330
174
100
AcDbEntity
  8
0
100
AcDbBlockEnd
  0
BLOCK
  5
17F
330
17E
100
AcDbEntity
  8
0
100
AcDbBlockBegin
  2
SW_CENTERMARKSYMBOL_0
 70
     0
 10
0.0
 20
0.0
 30
0.0
  3
SW_CENTERMARKSYMBOL_0
  1

  0
LINE
  5
181
330
17E
100
AcDbEntity
  8
0
  6
Continuous
 62
     0
370
     0
100
AcDbLine
 10
0.0
 20
0.0
 30
0.0
 11
0.0
 21
0.508
 31
0.0
  0
LINE
  5
182
330
17E
100
AcDbEntity
  8
0
  6
Continuous
 62
     0
370
     0
100
AcDbLine
 10
0.0
 20
0.0
 30
0.0
 11
-0.508
 21
0.0
 31
0.0
  0
LINE
  5
183
330
17E
100
AcDbEntity
  8
0
  6
Continuous
 62
     0
370
     0
100
AcDbLine
 10
0.0
 20
0.0
 30
0.0
 11
0.0
 21
-0.508
 31
0.0
  0
LINE
  5
184
330
17E
100
AcDbEntity
  8
0
  6
Continuous
 62
     0
370
     0
100
AcDbLine
 10
0.0
 20
0.0
 30
0.0
 11
0.508
 21
0.0
 31
0.0
  0
LINE
  5
185
330
17E
100
AcDbEntity
  8
0
  6
Continuous
 62
     0
370
     0
100
AcDbLine
 10
0.0
 20
1.016
 30
0.0
 11
0.0
 21
3.508
 31
0.0
  0
LINE
  5
186
330
17E
100
AcDbEntity
  8
0
  6
Continuous
 62
     0
370
     0
100
AcDbLine
 10
-1.016
 20
0.0
 30
0.0
 11
-3.508
 21
0.0
 31
0.0
  0
LINE
  5
187
330
17E
100
AcDbEntity
  8
0
  6
Continuous
 62
     0
370
     0
100
AcDbLine
 10
0.0
 20
-1.016
 30
0.0
 11
0.0
 21
-3.508
 31
0.0
  0
LINE
  5
188
330
17E
100
AcDbEntity
  8
0
  6
Continuous
 62
     0
370
     0
100
AcDbLine
 10
1.016
 20
0.0
 30
0.0
 11
3.508
 21
0.0
 31
0.0
  0
ENDBLK
  5
180
330
17E
100
AcDbEntity
  8
0
100
AcDbBlockEnd
  0
BLOCK
  5
18B
330
18A
100
AcDbEntity
  8
0
100
AcDbBlockBegin
  2
SW_CENTERMARKSYMBOL_1
 70
     0
 10
0.0
 20
0.0
 30
0.0
  3
SW_CENTERMARKSYMBOL_1
  1

  0
LINE
  5
18D
330
18A
100
AcDbEntity
  8
0
  6
Continuous
 62
     0
370
     0
100
AcDbLine
 10
0.0
 20
0.0
 30
0.0
 11
0.0
 21
0.508
 31
0.0
  0
LINE
  5
18E
330
18A
100
AcDbEntity
  8
0
  6
Continuous
 62
     0
370
     0
100
AcDbLine
 10
0.0
 20
0.0
 30
0.0
 11
-0.508
 21
0.0
 31
0.0
  0
LINE
  5
18F
330
18A
100
AcDbEntity
  8
0
  6
Continuous
 62
     0
370
     0
100
AcDbLine
 10
0.0
 20
0.0
 30
0.0
 11
0.0
 21
-0.508
 31
0.0
  0
LINE
  5
190
330
18A
100
AcDbEntity
  8
0
  6
Continuous
 62
     0
370
     0
100
AcDbLine
 10
0.0
 20
0.0
 30
0.0
 11
0.508
 21
0.0
 31
0.0
  0
LINE
  5
191
330
18A
100
AcDbEntity
  8
0
  6
Continuous
 62
     0
370
     0
100
AcDbLine
 10
0.0
 20
0.508
 30
0.0
 11
0.0
 21
1.008
 31
0.0
  0
LINE
  5
192
330
18A
100
AcDbEntity
  8
0
  6
Continuous
 62
     0
370
     0
100
AcDbLine
 10
-0.508
 20
0.0
 30
0.0
 11
-1.008
 21
0.0
 31
0.0
  0
LINE
  5
193
330
18A
100
AcDbEntity
  8
0
  6
Continuous
 62
     0
370
     0
100
AcDbLine
 10
0.0
 20
-0.508
 30
0.0
 11
0.0
 21
-1.008
 31
0.0
  0
LINE
  5
194
330
18A
100
AcDbEntity
  8
0
  6
Continuous
 62
     0
370
     0
100
AcDbLine
 10
0.508
 20
0.0
 30
0.0
 11
1.008
 21
0.0
 31
0.0
  0
ENDBLK
  5
18C
330
18A
100
AcDbEntity
  8
0
100
AcDbBlockEnd
  0
BLOCK
  5
197
330
196
100
AcDbEntity
  8
0
100
AcDbBlockBegin
  2
SW_CENTERMARKSYMBOL_2
 70
     0
 10
0.0
 20
0.0
 30
0.0
  3
SW_CENTERMARKSYMBOL_2
  1

  0
LINE
  5
199
330
196
100
AcDbEntity
  8
0
  6
Continuous
 62
     0
370
     0
100
AcDbLine
 10
0.0
 20
0.0
 30
0.0
 11
0.0
 21
0.508
 31
0.0
  0
LINE
  5
19A
330
196
100
AcDbEntity
  8
0
  6
Continuous
 62
     0
370
     0
100
AcDbLine
 10
0.0
 20
0.0
 30
0.0
 11
-0.508
 21
0.0
 31
0.0
  0
LINE
  5
19B
330
196
100
AcDbEntity
  8
0
  6
Continuous
 62
     0
370
     0
100
AcDbLine
 10
0.0
 20
0.0
 30
0.0
 11
0.0
 21
-0.508
 31
0.0
  0
LINE
  5
19C
330
196
100
AcDbEntity
  8
0
  6
Continuous
 62
     0
370
     0
100
AcDbLine
 10
0.0
 20
0.0
 30
0.0
 11
0.508
 21
0.0
 31
0.0
  0
LINE
  5
19D
330
196
100
AcDbEntity
  8
0
  6
Continuous
 62
     0
370
     0
100
AcDbLine
 10
0.0
 20
0.508
 30
0.0
 11
0.0
 21
1.008
 31
0.0
  0
LINE
  5
19E
330
196
100
AcDbEntity
  8
0
  6
Continuous
 62
     0
370
     0
100
AcDbLine
 10
-0.508
 20
0.0
 30
0.0
 11
-1.008
 21
0.0
 31
0.0
  0
LINE
  5
19F
330
196
100
AcDbEntity
  8
0
  6
Continuous
 62
     0
370
     0
100
AcDbLine
 10
0.0
 20
-0.508
 30
0.0
 11
0.0
 21
-1.008
 31
0.0
  0
LINE
  5
1A0
330
196
100
AcDbEntity
  8
0
  6
Continuous
 62
     0
370
     0
100
AcDbLine
 10
0.508
 20
0.0
 30
0.0
 11
1.008
 21
0.0
 31
0.0
  0
ENDBLK
  5
198
330
196
100
AcDbEntity
  8
0
100
AcDbBlockEnd
  0
BLOCK
  5
1A3
330
1A2
100
AcDbEntity
  8
0
100
AcDbBlockBegin
  2
SW_CENTERMARKSYMBOL_3
 70
     0
 10
0.0
 20
0.0
 30
0.0
  3
SW_CENTERMARKSYMBOL_3
  1

  0
LINE
  5
1A5
330
1A2
100
AcDbEntity
  8
0
  6
Continuous
 62
     0
370
     0
100
AcDbLine
 10
0.0
 20
0.0
 30
0.0
 11
0.0
 21
0.508
 31
0.0
  0
LINE
  5
1A6
330
1A2
100
AcDbEntity
  8
0
  6
Continuous
 62
     0
370
     0
100
AcDbLine
 10
0.0
 20
0.0
 30
0.0
 11
-0.508
 21
0.0
 31
0.0
  0
LINE
  5
1A7
330
1A2
100
AcDbEntity
  8
0
  6
Continuous
 62
     0
370
     0
100
AcDbLine
 10
0.0
 20
0.0
 30
0.0
 11
0.0
 21
-0.508
 31
0.0
  0
LINE
  5
1A8
330
1A2
100
AcDbEntity
  8
0
  6
Continuous
 62
     0
370
     0
100
AcDbLine
 10
0.0
 20
0.0
 30
0.0
 11
0.508
 21
0.0
 31
0.0
  0
LINE
  5
1A9
330
1A2
100
AcDbEntity
  8
0
  6
Continuous
 62
     0
370
     0
100
AcDbLine
 10
0.0
 20
0.508
 30
0.0
 11
0.0
 21
1.008
 31
0.0
  0
LINE
  5
1AA
330
1A2
100
AcDbEntity
  8
0
  6
Continuous
 62
     0
370
     0
100
AcDbLine
 10
-0.508
 20
0.0
 30
0.0
 11
-1.008
 21
0.0
 31
0.0
  0
LINE
  5
1AB
330
1A2
100
AcDbEntity
  8
0
  6
Continuous
 62
     0
370
     0
100
AcDbLine
 10
0.0
 20
-0.508
 30
0.0
 11
0.0
 21
-1.008
 31
0.0
  0
LINE
  5
1AC
330
1A2
100
AcDbEntity
  8
0
  6
Continuous
 62
     0
370
     0
100
AcDbLine
 10
0.508
 20
0.0
 30
0.0
 11
1.008
 21
0.0
 31
0.0
  0
ENDBLK
  5
1A4
330
1A2
100
AcDbEntity
  8
0
100
AcDbBlockEnd
  0
BLOCK
  5
1AF
330
1AE
100
AcDbEntity
  8
0
100
AcDbBlockBegin
  2
SW_CENTERMARKSYMBOL_4
 70
     0
 10
0.0
 20
0.0
 30
0.0
  3
SW_CENTERMARKSYMBOL_4
  1

  0
LINE
  5
1B1
330
1AE
100
AcDbEntity
  8
0
  6
Continuous
 62
     0
370
     0
100
AcDbLine
 10
0.0
 20
0.0
 30
0.0
 11
0.0
 21
0.508
 31
0.0
  0
LINE
  5
1B2
330
1AE
100
AcDbEntity
  8
0
  6
Continuous
 62
     0
370
     0
100
AcDbLine
 10
0.0
 20
0.0
 30
0.0
 11
-0.508
 21
0.0
 31
0.0
  0
LINE
  5
1B3
330
1AE
100
AcDbEntity
  8
0
  6
Continuous
 62
     0
370
     0
100
AcDbLine
 10
0.0
 20
0.0
 30
0.0
 11
0.0
 21
-0.508
 31
0.0
  0
LINE
  5
1B4
330
1AE
100
AcDbEntity
  8
0
  6
Continuous
 62
     0
370
     0
100
AcDbLine
 10
0.0
 20
0.0
 30
0.0
 11
0.508
 21
0.0
 31
0.0
  0
LINE
  5
1B5
330
1AE
100
AcDbEntity
  8
0
  6
Continuous
 62
     0
370
     0
100
AcDbLine
 10
0.0
 20
0.508
 30
0.0
 11
0.0
 21
1.008
 31
0.0
  0
LINE
  5
1B6
330
1AE
100
AcDbEntity
  8
0
  6
Continuous
 62
     0
370
     0
100
AcDbLine
 10
-0.508
 20
0.0
 30
0.0
 11
-1.008
 21
0.0
 31
0.0
  0
LINE
  5
1B7
330
1AE
100
AcDbEntity
  8
0
  6
Continuous
 62
     0
370
     0
100
AcDbLine
 10
0.0
 20
-0.508
 30
0.0
 11
0.0
 21
-1.008
 31
0.0
  0
LINE
  5
1B8
330
1AE
100
AcDbEntity
  8
0
  6
Continuous
 62
     0
370
     0
100
AcDbLine
 10
0.508
 20
0.0
 30
0.0
 11
1.0421447422
 21
0.0
 31
0.0
  0
ENDBLK
  5
1B0
330
1AE
100
AcDbEntity
  8
0
100
AcDbBlockEnd
  0
BLOCK
  5
1DE
330
1DD
100
AcDbEntity
  8
0
100
AcDbBlockBegin
  2
_D_11
 70
     0
 10
0.0
 20
0.0
 30
0.0
  3
_D_11
  1

  0
ARC
  5
1E0
330
1DD
100
AcDbEntity
  8
0
  6
Continuous
 62
     7
370
    18
100
AcDbCircle
 10
310.3890302468
 20
209.4606995138
 30
0.0
 40
5.635240858353202
100
AcDbArc
 50
153.4349488229
 51
206.5650511771
  0
ARC
  5
1E1
330
1DD
100
AcDbEntity
  8
0
  6
Continuous
 62
     7
370
    18
100
AcDbCircle
 10
308.5193079773
 20
209.4606995138
 30
0.0
 40
5.635240858353202
100
AcDbArc
 50
333.4349488229
 51
26.5650511771
  0
SOLID
  5
1E2
330
1DD
100
AcDbEntity
  8
0
  6
Continuous
 62
     7
370
    18
100
AcDbTrace
 10
287.5095149203
 20
209.7831604092
 30
0.0
 11
284.2075149203
 21
210.2911604092
 31
0.0
 12
284.2075149203
 22
209.2751604092
 32
0.0
 13
284.2075149203
 23
209.2751604092
 33
0.0
  0
SOLID
  5
1E3
330
1DD
100
AcDbEntity
  8
0
  6
Continuous
 62
     7
370
    18
100
AcDbTrace
 10
288.5095149203
 20
209.7831604092
 30
0.0
 11
291.8115149203
 21
209.2751604092
 31
0.0
 12
291.8115149203
 22
210.2911604092
 32
0.0
 13
291.8115149203
 23
210.2911604092
 33
0.0
  0
LINE
  5
1E4
330
1DD
100
AcDbEntity
  8
0
  6
Continuous
 62
     7
370
    18
100
AcDbLine
 10
287.5095149203
 20
196.3958606788
 30
0.0
 11
287.5095149203
 21
212.9581604092
 31
0.0
  0
LINE
  5
1E5
330
1DD
100
AcDbEntity
  8
0
  6
Continuous
 62
     7
370
    18
100
AcDbLine
 10
288.5095149203
 20
196.3958606788
 30
0.0
 11
288.5095149203
 21
212.9581604092
 31
0.0
  0
LINE
  5
1E6
330
1DD
100
AcDbEntity
  8
0
  6
Continuous
 62
     7
370
    18
100
AcDbLine
 10
287.5095149203
 20
209.7831604092
 30
0.0
 11
281.1595149203
 21
209.7831604092
 31
0.0
  0
LINE
  5
1E7
330
1DD
100
AcDbEntity
  8
0
  6
Continuous
 62
     7
370
    18
100
AcDbLine
 10
288.5095149203
 20
209.7831604092
 30
0.0
 11
304.7537893749
 21
209.7831604092
 31
0.0
  0
MTEXT
  5
1E8
330
1DD
100
AcDbEntity
  8
0
  6
Continuous
 62
     7
370
    18
100
AcDbMText
 10
305.3487175952
 20
211.033333611
 30
0.0
 40
3.175
 41
0.0
 71
     1
 72
     1
  1
5.00
  7
SLDTEXTSTYLE0
 73
     1
 44
1.0
  0
ENDBLK
  5
1DF
330
1DD
100
AcDbEntity
  8
0
100
AcDbBlockEnd
  0
ENDSEC
  0
SECTION
  2
ENTITIES
  0
LINE
  5
74
330
1F
100
AcDbEntity
  8
0
  6
Continuous
 62
     7
370
    18
100
AcDbLine
 10
262.6786009501
 20
12.7
 30
0.0
 11
262.6786009501
 21
63.4037376678
 31
0.0
  0
LINE
  5
75
330
1F
100
AcDbEntity
  8
0
  6
Continuous
 62
     7
370
    18
100
AcDbLine
 10
262.6786009501
 20
63.4037376678
 30
0.0
 11
419.1
 21
63.4037376678
 31
0.0
  0
LINE
  5
76
330
1F
100
AcDbEntity
  8
0
  6
Continuous
 62
     7
370
    18
100
AcDbLine
 10
305.9481386263
 20
63.4037376678
 30
0.0
 11
305.9481386263
 21
12.7
 31
0.0
  0
LINE
  5
77
330
1F
100
AcDbEntity
  8
0
  6
Continuous
 62
     7
370
    18
100
AcDbLine
 10
348.9030308955
 20
63.4037376678
 30
0.0
 11
348.9030308955
 21
12.7
 31
0.0
  0
LINE
  5
78
330
1F
100
AcDbEntity
  8
0
  6
Continuous
 62
     7
370
    18
100
AcDbLine
 10
348.9030308955
 20
18.1073003199
 30
0.0
 11
419.1
 21
18.1073003199
 31
0.0
  0
LINE
  5
79
330
1F
100
AcDbEntity
  8
0
  6
Continuous
 62
     7
370
    18
100
AcDbLine
 10
348.9030308955
 20
30.9845221033
 30
0.0
 11
419.1
 21
30.9845221033
 31
0.0
  0
LINE
  5
7A
330
1F
100
AcDbEntity
  8
0
  6
Continuous
 62
     7
370
    18
100
AcDbLine
 10
348.9030308955
 20
53.268808883
 30
0.0
 11
419.1
 21
53.268808883
 31
0.0
  0
LINE
  5
7B
330
1F
100
AcDbEntity
  8
0
  6
Continuous
 62
     7
370
    18
100
AcDbLine
 10
359.0753486998
 20
30.9845221033
 30
0.0
 11
359.0753486998
 21
18.1073003199
 31
0.0
  0
LINE
  5
7C
330
1F
100
AcDbEntity
  8
0
  6
Continuous
 62
     7
370
    18
100
AcDbLine
 10
369.9361795467
 20
18.1073003199
 30
0.0
 11
369.9361795467
 21
12.7
 31
0.0
  0
LINE
  5
7D
330
1F
100
AcDbEntity
  8
0
  6
Continuous
 62
     7
370
    18
100
AcDbLine
 10
404.5728434947
 20
30.9845221033
 30
0.0
 11
404.5728434947
 21
18.1073003199
 31
0.0
  0
LINE
  5
7E
330
1F
100
AcDbEntity
  8
0
  6
Continuous
 62
     7
370
    18
100
AcDbLine
 10
394.6227480427
 20
18.1073003199
 30
0.0
 11
394.6227480427
 21
12.7
 31
0.0
  0
LINE
  5
7F
330
1F
100
AcDbEntity
  8
0
  6
Continuous
 62
     7
370
    18
100
AcDbLine
 10
305.9481386263
 20
53.268808883
 30
0.0
 11
348.9030308955
 21
53.268808883
 31
0.0
  0
LINE
  5
80
330
1F
100
AcDbEntity
  8
0
  6
Continuous
 62
     7
370
    18
100
AcDbLine
 10
305.9481386263
 20
57.8319383331
 30
0.0
 11
348.9030308955
 21
57.8319383331
 31
0.0
  0
LINE
  5
81
330
1F
100
AcDbEntity
  8
0
  6
Continuous
 62
     7
370
    18
100
AcDbLine
 10
337.2430706583
 20
63.4037376678
 30
0.0
 11
337.2430706583
 21
53.268808883
 31
0.0
  0
LINE
  5
82
330
1F
100
AcDbEntity
  8
0
  6
Continuous
 62
     7
370
    18
100
AcDbLine
 10
324.9852156405
 20
63.4037376678
 30
0.0
 11
324.9852156405
 21
53.268808883
 31
0.0
  0
LINE
  5
83
330
1F
100
AcDbEntity
  8
0
  6
Continuous
 62
     7
370
    18
100
AcDbLine
 10
305.9481386263
 20
58.6742077444
 30
0.0
 11
262.6786009501
 21
58.6742077444
 31
0.0
  0
LINE
  5
84
330
1F
100
AcDbEntity
  8
0
  6
Continuous
 62
     7
370
    18
100
AcDbLine
 10
262.6786009501
 20
38.0518688339
 30
0.0
 11
306.1015874312
 21
38.0518688339
 31
0.0
  0
LINE
  5
85
330
1F
100
AcDbEntity
  8
0
  6
Continuous
 62
     7
370
    50
100
AcDbLine
 10
12.7
 20
12.7
 30
0.0
 11
12.7
 21
266.7
 31
0.0
  0
LINE
  5
86
330
1F
100
AcDbEntity
  8
0
  6
Continuous
 62
     7
370
    50
100
AcDbLine
 10
12.7
 20
266.7
 30
0.0
 11
419.1
 21
266.7
 31
0.0
  0
LINE
  5
87
330
1F
100
AcDbEntity
  8
0
  6
Continuous
 62
     7
370
    50
100
AcDbLine
 10
419.1
 20
266.7
 30
0.0
 11
419.1
 21
12.7
 31
0.0
  0
LINE
  5
88
330
1F
100
AcDbEntity
  8
0
  6
Continuous
 62
     7
370
    50
100
AcDbLine
 10
419.1
 20
12.7
 30
0.0
 11
12.7
 21
12.7
 31
0.0
  0
LINE
  5
89
330
1F
100
AcDbEntity
  8
0
  6
Continuous
 62
     7
370
    25
100
AcDbLine
 10
3.175
 20
139.7
 30
0.0
 11
12.7
 21
139.7
 31
0.0
  0
LINE
  5
8A
330
1F
100
AcDbEntity
  8
0
  6
Continuous
 62
     7
370
    25
100
AcDbLine
 10
215.9
 20
276.225
 30
0.0
 11
215.9
 21
266.7
 31
0.0
  0
LINE
  5
8B
330
1F
100
AcDbEntity
  8
0
  6
Continuous
 62
     7
370
    25
100
AcDbLine
 10
428.625
 20
139.7
 30
0.0
 11
419.1
 21
139.7
 31
0.0
  0
LINE
  5
8C
330
1F
100
AcDbEntity
  8
0
  6
Continuous
 62
     7
370
    25
100
AcDbLine
 10
215.9
 20
3.175
 30
0.0
 11
215.9
 21
12.7
 31
0.0
  0
LINE
  5
8D
330
1F
100
AcDbEntity
  8
0
  6
Continuous
 62
     7
370
    25
100
AcDbLine
 10
12.7
 20
139.7
 30
0.0
 11
3.175
 21
139.7
 31
0.0
  0
LINE
  5
8E
330
1F
100
AcDbEntity
  8
0
  6
Continuous
 62
     7
370
    25
100
AcDbLine
 10
419.1
 20
139.7
 30
0.0
 11
428.625
 21
139.7
 31
0.0
  0
LINE
  5
8F
330
1F
100
AcDbEntity
  8
0
  6
Continuous
 62
     7
370
    25
100
AcDbLine
 10
107.95
 20
266.7
 30
0.0
 11
107.95
 21
276.225
 31
0.0
  0
LINE
  5
90
330
1F
100
AcDbEntity
  8
0
  6
Continuous
 62
     7
370
    25
100
AcDbLine
 10
107.95
 20
12.7
 30
0.0
 11
107.95
 21
3.175
 31
0.0
  0
LINE
  5
91
330
1F
100
AcDbEntity
  8
0
  6
Continuous
 62
     7
370
    25
100
AcDbLine
 10
215.9
 20
266.7
 30
0.0
 11
215.9
 21
276.225
 31
0.0
  0
LINE
  5
92
330
1F
100
AcDbEntity
  8
0
  6
Continuous
 62
     7
370
    25
100
AcDbLine
 10
215.9
 20
12.7
 30
0.0
 11
215.9
 21
3.175
 31
0.0
  0
LINE
  5
93
330
1F
100
AcDbEntity
  8
0
  6
Continuous
 62
     7
370
    25
100
AcDbLine
 10
323.85
 20
266.7
 30
0.0
 11
323.85
 21
276.225
 31
0.0
  0
LINE
  5
94
330
1F
100
AcDbEntity
  8
0
  6
Continuous
 62
     7
370
    25
100
AcDbLine
 10
323.85
 20
12.7
 30
0.0
 11
323.85
 21
3.175
 31
0.0
  0
INSERT
  5
9C
330
1F
100
AcDbEntity
  8
0
  6
Continuous
 62
     7
370
     0
100
AcDbBlockReference
  2
SW_NOTE_0
 10
14.3948300511
 20
260.206763721
 30
0.0
  0
MTEXT
  5
9D
330
1F
100
AcDbEntity
  8
0
  6
Continuous
 62
     7
370
     0
100
AcDbMText
 10
6.1065833417
 20
69.8256904019
 30
0.0
 40
6.096
 41
0.0
 71
     2
 72
     1
  1
A
  7
SLDTEXTSTYLE0
 73
     1
 44
1.0
  0
MTEXT
  5
9E
330
1F
100
AcDbEntity
  8
0
  6
Continuous
 62
     7
370
     0
100
AcDbMText
 10
425.2065833417
 20
69.8256904019
 30
0.0
 40
6.096
 41
0.0
 71
     2
 72
     1
  1
A
  7
SLDTEXTSTYLE0
 73
     1
 44
1.0
  0
MTEXT
  5
9F
330
1F
100
AcDbEntity
  8
0
  6
Continuous
 62
     7
370
     0
100
AcDbMText
 10
6.3034332283
 20
209.5256904019
 30
0.0
 40
6.096
 41
0.0
 71
     2
 72
     1
  1
B
  7
SLDTEXTSTYLE0
 73
     1
 44
1.0
  0
MTEXT
  5
A0
330
1F
100
AcDbEntity
  8
0
  6
Continuous
 62
     7
370
     0
100
AcDbMText
 10
425.4034332283
 20
209.5256904019
 30
0.0
 40
6.096
 41
0.0
 71
     2
 72
     1
  1
B
  7
SLDTEXTSTYLE0
 73
     1
 44
1.0
  0
MTEXT
  5
A1
330
1F
100
AcDbEntity
  8
0
  6
Continuous
 62
     7
370
     0
100
AcDbMText
 10
53.9136166697
 20
9.4636904019
 30
0.0
 40
6.096
 41
0.0
 71
     2
 72
     1
  1
4
  7
SLDTEXTSTYLE0
 73
     1
 44
1.0
  0
MTEXT
  5
A2
330
1F
100
AcDbEntity
  8
0
  6
Continuous
 62
     7
370
     0
100
AcDbMText
 10
53.9136166697
 20
276.1636904019
 30
0.0
 40
6.096
 41
0.0
 71
     2
 72
     1
  1
4
  7
SLDTEXTSTYLE0
 73
     1
 44
1.0
  0
MTEXT
  5
A3
330
1F
100
AcDbEntity
  8
0
  6
Continuous
 62
     7
370
     0
100
AcDbMText
 10
161.8636166697
 20
9.4636904019
 30
0.0
 40
6.096
 41
0.0
 71
     2
 72
     1
  1
3
  7
SLDTEXTSTYLE0
 73
     1
 44
1.0
  0
MTEXT
  5
A4
330
1F
100
AcDbEntity
  8
0
  6
Continuous
 62
     7
370
     0
100
AcDbMText
 10
161.8636166697
 20
276.1636904019
 30
0.0
 40
6.096
 41
0.0
 71
     2
 72
     1
  1
3
  7
SLDTEXTSTYLE0
 73
     1
 44
1.0
  0
MTEXT
  5
A5
330
1F
100
AcDbEntity
  8
0
  6
Continuous
 62
     7
370
     0
100
AcDbMText
 10
269.8136166697
 20
9.4636904019
 30
0.0
 40
6.096
 41
0.0
 71
     2
 72
     1
  1
2
  7
SLDTEXTSTYLE0
 73
     1
 44
1.0
  0
MTEXT
  5
A6
330
1F
100
AcDbEntity
  8
0
  6
Continuous
 62
     7
370
     0
100
AcDbMText
 10
269.8136166697
 20
276.1636904019
 30
0.0
 40
6.096
 41
0.0
 71
     2
 72
     1
  1
2
  7
SLDTEXTSTYLE0
 73
     1
 44
1.0
  0
MTEXT
  5
A7
330
1F
100
AcDbEntity
  8
0
  6
Continuous
 62
     7
370
     0
100
AcDbMText
 10
377.7636166697
 20
9.4636904019
 30
0.0
 40
6.096
 41
0.0
 71
     2
 72
     1
  1
1
  7
SLDTEXTSTYLE0
 73
     1
 44
1.0
  0
MTEXT
  5
A8
330
1F
100
AcDbEntity
  8
0
  6
Continuous
 62
     7
370
     0
100
AcDbMText
 10
377.7636166697
 20
276.1636904019
 30
0.0
 40
6.096
 41
0.0
 71
     2
 72
     1
  1
1
  7
SLDTEXTSTYLE0
 73
     1
 44
1.0
  0
MTEXT
  5
A9
330
1F
100
AcDbEntity
  8
0
  6
Continuous
 62
     7
370
     0
100
AcDbMText
 10
385.0285585403
 20
48.0716913567
 30
0.0
 40
6.35
 41
0.0
 71
     2
 72
     1
  1
REAR WINDOW
  7
SLDTEXTSTYLE0
 73
     1
 44
1.0
  0
MTEXT
  5
AA
330
1F
100
AcDbEntity
  8
0
  6
Continuous
 62
     7
370
     0
100
AcDbMText
 10
411.9329768018
 20
26.8635554926
 30
0.0
 40
6.35
 41
0.0
 71
     2
 72
     1
  1
A
  7
SLDTEXTSTYLE0
 73
     1
 44
1.0
  0
MTEXT
  5
AB
330
1F
100
AcDbEntity
  8
0
  6
Continuous
 62
     7
370
     0
100
AcDbMText
 10
382.0793618264
 20
26.8729200999
 30
0.0
 40
6.35
 41
0.0
 71
     2
 72
     1
  1
2219
  7
SLDTEXTSTYLE0
 73
     1
 44
1.0
  0
MTEXT
  5
AD
330
1F
100
AcDbEntity
  8
0
  6
Continuous
 62
     7
370
     0
100
AcDbMText
 10
396.9309015475
 20
16.7729098749
 30
0.0
 40
2.54
 41
0.0
 71
     1
 72
     1
  1
SHEET 1 OF 1
  7
SLDTEXTSTYLE1
 73
     1
 44
1.0
  0
MTEXT
  5
AE
330
1F
100
AcDbEntity
  8
0
  6
Continuous
 62
     7
370
     0
100
AcDbMText
 10
264.617116676
 20
62.1157897722
 30
0.0
 40
1.778
 41
0.0
 71
     1
 72
     1
  1
UNLESS OTHERWISE SPECIFIED:
  7
SLDTEXTSTYLE0
 73
     1
 44
1.0
  0
MTEXT
  5
AF
330
1F
100
AcDbEntity
  8
0
  6
Continuous
 62
     7
370
     0
100
AcDbMText
 10
351.2486489046
 20
16.7646506765
 30
0.0
 40
2.54
 41
0.0
 71
     1
 72
     1
  1
SCALE: 1:5
  7
SLDTEXTSTYLE0
 73
     1
 44
1.0
  0
MTEXT
  5
B0
330
1F
100
AcDbEntity
  8
0
  6
Continuous
 62
     7
370
     0
100
AcDbMText
 10
370.1400309829
 20
16.6777203587
 30
0.0
 40
2.54
 41
0.0
 71
     1
 72
     1
  1
WEIGHT:
  7
SLDTEXTSTYLE0
 73
     1
 44
1.0
  0
MTEXT
  5
B1
330
1F
100
AcDbEntity
  8
0
  6
Continuous
 62
     7
370
     0
100
AcDbMText
 10
408.8849098979
 20
30.2232854568
 30
0.0
 40
2.54
 41
0.0
 71
     1
 72
     1
  1
REV
  7
SLDTEXTSTYLE0
 73
     1
 44
1.0
  0
MTEXT
  5
B3
330
1F
100
AcDbEntity
  8
0
  6
Continuous
 62
     7
370
     0
100
AcDbMText
 10
359.8806642798
 20
30.3225037079
 30
0.0
 40
2.54
 41
0.0
 71
     1
 72
     1
  1
DWG.  NO.
  7
SLDTEXTSTYLE2
 73
     1
 44
1.0
  0
MTEXT
  5
B4
330
1F
100
AcDbEntity
  8
0
  6
Continuous
 62
     7
370
     0
100
AcDbMText
 10
351.2800000853
 20
26.7243788986
 30
0.0
 40
6.35
 41
0.0
 71
     1
 72
     1
  1
B
  7
SLDTEXTSTYLE0
 73
     1
 44
1.0
  0
MTEXT
  5
B5
330
1F
100
AcDbEntity
  8
0
  6
Continuous
 62
     7
370
     0
100
AcDbMText
 10
351.079592027
 20
30.3580337109
 30
0.0
 40
2.54
 41
0.0
 71
     1
 72
     1
  1
SIZE
  7
SLDTEXTSTYLE0
 73
     1
 44
1.0
  0
MTEXT
  5
B6
330
1F
100
AcDbEntity
  8
0
  6
Continuous
 62
     7
370
     0
100
AcDbMText
 10
350.1934428097
 20
52.3929595276
 30
0.0
 40
2.54
 41
0.0
 71
     1
 72
     1
  1
TITLE:
  7
SLDTEXTSTYLE0
 73
     1
 44
1.0
  0
MTEXT
  5
B7
330
1F
100
AcDbEntity
  8
0
  6
Continuous
 62
     7
370
     0
100
AcDbMText
 10
327.8238425205
 20
60.9229910986
 30
0.0
 40
1.651
 41
0.0
 71
     1
 72
     1
  1
NAME
  7
SLDTEXTSTYLE0
 73
     1
 44
1.0
  0
MTEXT
  5
B8
330
1F
100
AcDbEntity
  8
0
  6
Continuous
 62
     7
370
     0
100
AcDbMText
 10
340.3148912103
 20
60.8788912243
 30
0.0
 40
1.651
 41
0.0
 71
     1
 72
     1
  1
DATE
  7
SLDTEXTSTYLE0
 73
     1
 44
1.0
  0
MTEXT
  5
B9
330
1F
100
AcDbEntity
  8
0
  6
Continuous
 62
     7
370
     0
100
AcDbMText
 10
307.2838076531
 20
51.4534678786
 30
0.0
 40
1.651
 41
0.0
 71
     1
 72
     1
  1
COMMENTS:
  7
SLDTEXTSTYLE0
 73
     1
 44
1.0
  0
MTEXT
  5
BA
330
1F
100
AcDbEntity
  8
0
  6
Continuous
 62
     7
370
     0
100
AcDbMText
 10
307.196551863
 20
56.122746594
 30
0.0
 40
1.651
 41
0.0
 71
     1
 72
     1
  1
DRAWN
  7
SLDTEXTSTYLE0
 73
     1
 44
1.0
  0
MTEXT
  5
BB
330
1F
100
AcDbEntity
  8
0
  6
Continuous
 62
     7
370
     0
100
AcDbMText
 10
268.9893173785
 20
36.2028510459
 30
0.0
 40
1.524
 41
0.0
 71
     1
 72
     1
  1
PROPRIETARY AND CONFIDENTIAL
  7
SLDTEXTSTYLE0
 73
     1
 44
1.0
  0
INSERT
  5
C6
330
1F
100
AcDbEntity
  8
0
  6
Continuous
 62
     7
370
     0
100
AcDbBlockReference
  2
SW_NOTE_1
 10
265.2141651255
 20
30.6575744475
 30
0.0
  0
INSERT
  5
DA
330
1F
100
AcDbEntity
  8
0
  6
Continuous
 62
     7
370
     0
100
AcDbBlockReference
  2
SW_NOTE_2
 10
265.4131812753
 20
54.276592698
 30
0.0
  0
ARC
  5
DB
330
1F
100
AcDbEntity
  8
0
  6
Continuous
 62
     7
370
    25
100
AcDbCircle
 10
102.1358682965
 20
165.1958606788
 30
0.0
 40
0.5000000000000284
100
AcDbArc
 50
270.0
 51
90.0
  0
LINE
  5
DC
330
1F
100
AcDbEntity
  8
0
  6
Continuous
 62
     7
370
    25
100
AcDbLine
 10
102.1358682965
 20
165.6958606788
 30
0.0
 11
100.9858682965
 21
165.6958606788
 31
0.0
  0
ARC
  5
DD
330
1F
100
AcDbEntity
  8
0
  6
Continuous
 62
     7
370
    25
100
AcDbCircle
 10
100.9858682965
 20
165.7958606788
 30
0.0
 40
0.0999999999999943
100
AcDbArc
 50
180.0
 51
270.0
  0
ARC
  5
DE
330
1F
100
AcDbEntity
  8
0
  6
Continuous
 62
     7
370
    25
100
AcDbCircle
 10
101.4858682965
 20
166.2258606788
 30
0.0
 40
0.6000000000000227
100
AcDbArc
 50
90.0
 51
180.0
  0
LINE
  5
DF
330
1F
100
AcDbEntity
  8
0
  6
Continuous
 62
     7
370
    25
100
AcDbLine
 10
101.4858682965
 20
166.8258606788
 30
0.0
 11
141.2170457865
 21
166.8258606788
 31
0.0
  0
ARC
  5
E0
330
1F
100
AcDbEntity
  8
0
  6
Continuous
 62
     7
370
    25
100
AcDbCircle
 10
141.2170457865
 20
169.8258606788
 30
0.0
 40
2.999999999999972
100
AcDbArc
 50
270.0
 51
0.0
  0
LINE
  5
E1
330
1F
100
AcDbEntity
  8
0
  6
Continuous
 62
     7
370
    25
100
AcDbLine
 10
144.2170457865
 20
169.8258606788
 30
0.0
 11
144.2170457865
 21
194.5258606788
 31
0.0
  0
ARC
  5
E2
330
1F
100
AcDbEntity
  8
0
  6
Continuous
 62
     7
370
    25
100
AcDbCircle
 10
144.8170457865
 20
194.5258606788
 30
0.0
 40
0.6000000000000227
100
AcDbArc
 50
90.0
 51
180.0
  0
ARC
  5
E3
330
1F
100
AcDbEntity
  8
0
  6
Continuous
 62
     7
370
    25
100
AcDbCircle
 10
208.8658682965
 20
194.3258606788
 30
0.0
 40
0.799999999999983
100
AcDbArc
 50
0.0
 51
90.0
  0
ARC
  5
E4
330
1F
100
AcDbEntity
  8
0
  6
Continuous
 62
     7
370
    25
100
AcDbCircle
 10
209.5658682965
 20
191.2258606788
 30
0.0
 40
0.1000000000000227
100
AcDbArc
 50
270.0
 51
0.0
  0
LINE
  5
E5
330
1F
100
AcDbEntity
  8
0
  6
Continuous
 62
     7
370
    25
100
AcDbLine
 10
209.5658682965
 20
191.1258606788
 30
0.0
 11
208.4158682965
 21
191.1258606788
 31
0.0
  0
ARC
  5
E6
330
1F
100
AcDbEntity
  8
0
  6
Continuous
 62
     7
370
    25
100
AcDbCircle
 10
208.4158682965
 20
190.6258606788
 30
0.0
 40
0.5
100
AcDbArc
 50
90.0
 51
270.0
  0
LINE
  5
E7
330
1F
100
AcDbEntity
  8
0
  6
Continuous
 62
     7
370
    25
100
AcDbLine
 10
208.4158682965
 20
190.1258606788
 30
0.0
 11
209.5658682965
 21
190.1258606788
 31
0.0
  0
ARC
  5
E8
330
1F
100
AcDbEntity
  8
0
  6
Continuous
 62
     7
370
    25
100
AcDbCircle
 10
209.5658682965
 20
190.0258606788
 30
0.0
 40
0.0999999999999943
100
AcDbArc
 50
0.0
 51
90.0
  0
ARC
  5
E9
330
1F
100
AcDbEntity
  8
0
  6
Continuous
 62
     7
370
    25
100
AcDbCircle
 10
209.5658682965
 20
93.2458606788
 30
0.0
 40
0.1000000000000227
100
AcDbArc
 50
270.0
 51
0.0
  0
LINE
  5
EA
330
1F
100
AcDbEntity
  8
0
  6
Continuous
 62
     7
370
    25
100
AcDbLine
 10
209.5658682965
 20
93.1458606788
 30
0.0
 11
208.4158682965
 21
93.1458606788
 31
0.0
  0
ARC
  5
EB
330
1F
100
AcDbEntity
  8
0
  6
Continuous
 62
     7
370
    25
100
AcDbCircle
 10
208.4158682965
 20
92.6458606788
 30
0.0
 40
0.5000000000000284
100
AcDbArc
 50
90.0
 51
270.0
  0
LINE
  5
EC
330
1F
100
AcDbEntity
  8
0
  6
Continuous
 62
     7
370
    25
100
AcDbLine
 10
208.4158682965
 20
92.1458606788
 30
0.0
 11
209.5658682965
 21
92.1458606788
 31
0.0
  0
ARC
  5
ED
330
1F
100
AcDbEntity
  8
0
  6
Continuous
 62
     7
370
    25
100
AcDbCircle
 10
209.5658682965
 20
92.0458606788
 30
0.0
 40
0.1000000000000227
100
AcDbArc
 50
0.0
 51
90.0
  0
ARC
  5
EE
330
1F
100
AcDbEntity
  8
0
  6
Continuous
 62
     7
370
    25
100
AcDbCircle
 10
208.8658682965
 20
88.9458606788
 30
0.0
 40
0.8000000000000114
100
AcDbArc
 50
270.0
 51
0.0
  0
ARC
  5
EF
330
1F
100
AcDbEntity
  8
0
  6
Continuous
 62
     7
370
    25
100
AcDbCircle
 10
101.6858682965
 20
88.9458606788
 30
0.0
 40
0.8000000000000114
100
AcDbArc
 50
180.0
 51
270.0
  0
ARC
  5
F0
330
1F
100
AcDbEntity
  8
0
  6
Continuous
 62
     7
370
    25
100
AcDbCircle
 10
100.9858682965
 20
92.0458606788
 30
0.0
 40
0.1000000000000227
100
AcDbArc
 50
90.0
 51
180.0
  0
LINE
  5
F1
330
1F
100
AcDbEntity
  8
0
  6
Continuous
 62
     7
370
    25
100
AcDbLine
 10
100.9858682965
 20
92.1458606788
 30
0.0
 11
102.1358682965
 21
92.1458606788
 31
0.0
  0
ARC
  5
F2
330
1F
100
AcDbEntity
  8
0
  6
Continuous
 62
     7
370
    25
100
AcDbCircle
 10
102.1358682965
 20
92.6458606788
 30
0.0
 40
0.5000000000000142
100
AcDbArc
 50
270.0
 51
90.0
  0
LINE
  5
F3
330
1F
100
AcDbEntity
  8
0
  6
Continuous
 62
     7
370
    25
100
AcDbLine
 10
102.1358682965
 20
93.1458606788
 30
0.0
 11
100.9858682965
 21
93.1458606788
 31
0.0
  0
ARC
  5
F4
330
1F
100
AcDbEntity
  8
0
  6
Continuous
 62
     7
370
    25
100
AcDbCircle
 10
100.9858682965
 20
93.2458606788
 30
0.0
 40
0.1000000000000227
100
AcDbArc
 50
180.0
 51
270.0
  0
ARC
  5
F5
330
1F
100
AcDbEntity
  8
0
  6
Continuous
 62
     7
370
    25
100
AcDbCircle
 10
100.9858682965
 20
164.5958606788
 30
0.0
 40
0.0999999999999943
100
AcDbArc
 50
90.0
 51
180.0
  0
LINE
  5
F6
330
1F
100
AcDbEntity
  8
0
  6
Continuous
 62
     7
370
    25
100
AcDbLine
 10
100.9858682965
 20
164.6958606788
 30
0.0
 11
102.1358682965
 21
164.6958606788
 31
0.0
  0
CIRCLE
  5
F7
330
1F
100
AcDbEntity
  8
0
  6
Continuous
 62
     7
370
    25
100
AcDbCircle
 10
110.0858682965
 20
95.4458606788
 30
0.0
 40
3.0
  0
LINE
  5
F8
330
1F
100
AcDbEntity
  8
0
  6
Continuous
 62
     7
370
    25
100
AcDbLine
 10
209.6658682965
 20
88.9458606788
 30
0.0
 11
209.6658682965
 21
92.0458606788
 31
0.0
  0
LINE
  5
F9
330
1F
100
AcDbEntity
  8
0
  6
Continuous
 62
     7
370
    25
100
AcDbLine
 10
101.6858682965
 20
88.1458606788
 30
0.0
 11
208.8658682965
 21
88.1458606788
 31
0.0
  0
LINE
  5
FA
330
1F
100
AcDbEntity
  8
0
  6
Continuous
 62
     7
370
    25
100
AcDbLine
 10
100.8858682965
 20
166.2258606788
 30
0.0
 11
100.8858682965
 21
165.7958606788
 31
0.0
  0
LINE
  5
FB
330
1F
100
AcDbEntity
  8
0
  6
Continuous
 62
     7
370
    25
100
AcDbLine
 10
100.8858682965
 20
164.5958606788
 30
0.0
 11
100.8858682965
 21
93.2458606788
 31
0.0
  0
LINE
  5
FC
330
1F
100
AcDbEntity
  8
0
  6
Continuous
 62
     7
370
    25
100
AcDbLine
 10
209.6658682965
 20
191.2258606788
 30
0.0
 11
209.6658682965
 21
194.3258606788
 31
0.0
  0
LINE
  5
FD
330
1F
100
AcDbEntity
  8
0
  6
Continuous
 62
     7
370
    25
100
AcDbLine
 10
209.6658682965
 20
93.2458606788
 30
0.0
 11
209.6658682965
 21
190.0258606788
 31
0.0
  0
LINE
  5
FE
330
1F
100
AcDbEntity
  8
0
  6
Continuous
 62
     7
370
    25
100
AcDbLine
 10
100.8858682965
 20
92.0458606788
 30
0.0
 11
100.8858682965
 21
88.9458606788
 31
0.0
  0
LINE
  5
FF
330
1F
100
AcDbEntity
  8
0
  6
Continuous
 62
     7
370
    25
100
AcDbLine
 10
208.8658682965
 20
195.1258606788
 30
0.0
 11
144.8170457865
 21
195.1258606788
 31
0.0
  0
DIMENSION
  5
100
330
1F
100
AcDbEntity
  8
0
  6
Continuous
 62
     7
370
    18
100
AcDbDimension
  2
_D
 10
110.0858682965
 20
146.8202907069
 30
0.0
 11
87.5831252884
 21
146.8202907069
 31
0.0
 70
   160
  1
<>
 71
     2
 42
-1.0
  3
SLDDIMSTYLE0
100
AcDbAlignedDimension
 13
100.8858682965
 23
165.7958606788
 33
0.0
 14
110.0858682965
 24
98.9538606788
 34
0.0
100
AcDbRotatedDimension
  0
DIMENSION
  5
10C
330
1F
100
AcDbEntity
  8
0
  6
Continuous
 62
     7
370
    18
100
AcDbDimension
  2
_D_1
 10
209.6658682965
 20
125.7958606788
 30
0.0
 11
156.5123375305
 21
125.7958606788
 31
0.0
 70
   160
  1
<>
 71
     2
 42
-1.0
  3
SLDDIMSTYLE0
100
AcDbAlignedDimension
 13
100.8858682965
 23
165.7958606788
 33
0.0
 14
209.6658682965
 24
88.1458606788
 34
0.0
100
AcDbRotatedDimension
  0
DIMENSION
  5
116
330
1F
100
AcDbEntity
  8
0
  6
Continuous
 62
     7
370
    18
100
AcDbDimension
  2
_D_2
 10
57.70449602
 20
95.4458606788
 30
0.0
 11
57.70449602
 21
90.8103113562
 31
0.0
 70
   160
  1
<>
 71
     2
 42
-1.0
  3
SLDDIMSTYLE1
100
AcDbAlignedDimension
 13
101.6858682965
 23
88.1458606788
 33
0.0
 14
106.5778682965
 24
95.4458606788
 34
0.0
 50
90.0
100
AcDbRotatedDimension
  0
DIMENSION
  5
122
330
1F
100
AcDbEntity
  8
0
  6
Continuous
 62
     7
370
    18
100
AcDbDimension
  2
_D_3
 10
27.2265711825
 20
166.8258606788
 30
0.0
 11
27.2265711825
 21
138.6630020775
 31
0.0
 70
   160
  1
<>
 71
     2
 42
-1.0
  3
SLDDIMSTYLE0
100
AcDbAlignedDimension
 13
101.6858682965
 23
88.1458606788
 33
0.0
 14
101.4858682965
 24
166.8258606788
 34
0.0
 50
90.0
100
AcDbRotatedDimension
  0
DIMENSION
  5
12D
330
1F
100
AcDbEntity
  8
0
  6
Continuous
 62
     7
370
    18
100
AcDbDimension
  2
_D_4
 10
249.6658682965
 20
88.1458606788
 30
0.0
 11
249.6658682965
 21
129.3015455869
 31
0.0
 70
   160
  1
<>
 71
     2
 42
-1.0
  3
SLDDIMSTYLE0
100
AcDbAlignedDimension
 13
208.8658682965
 23
195.1258606788
 33
0.0
 14
208.8658682965
 24
88.1458606788
 34
0.0
 50
90.0
100
AcDbRotatedDimension
  0
DIMENSION
  5
138
330
1F
100
AcDbEntity
  8
0
  6
Continuous
 62
     7
370
    18
100
AcDbDimension
  2
_D_5
 10
108.6900678192
 20
92.7903492351
 30
0.0
 11
128.895197867
 21
106.7842512455
 31
0.0
 70
   163
  1
<>
 71
     1
 42
-1.0
  3
SLDDIMSTYLE2
100
AcDbDiametricDimension
 15
111.4816687737
 25
98.1013721225
 35
0.0
 40
0.0
  0
DIMENSION
  5
142
330
1F
100
AcDbEntity
  8
0
  6
Continuous
 62
     7
370
    18
100
AcDbDimension
  2
_D_6
 10
230.8658682965
 20
190.6258606788
 30
0.0
 11
230.8658682965
 21
134.1360450351
 31
0.0
 70
   160
  1
<>
 71
     2
 42
-1.0
  3
SLDDIMSTYLE0
100
AcDbAlignedDimension
 13
208.8658682965
 23
88.1458606788
 33
0.0
 14
209.4580130386
 24
190.6258606788
 34
0.0
 50
90.0
100
AcDbRotatedDimension
  0
DIMENSION
  5
14D
330
1F
100
AcDbEntity
  8
0
  6
Continuous
 62
     7
370
    18
100
AcDbDimension
  2
_D_7
 10
102.1358682965
 20
78.9458606788
 30
0.0
 11
88.5739167818
 21
78.9458606788
 31
0.0
 70
   160
  1
2X <>
 71
     2
 42
-1.0
  3
SLDDIMSTYLE3
100
AcDbAlignedDimension
 13
100.8858682965
 23
88.9458606788
 33
0.0
 14
102.1358682965
 24
91.6378606788
 34
0.0
100
AcDbRotatedDimension
  0
DIMENSION
  5
15A
330
1F
100
AcDbEntity
  8
0
  6
Continuous
 62
     7
370
    18
100
AcDbDimension
  2
_D_8
 10
208.4158682965
 20
66.1458606788
 30
0.0
 11
152.9878807645
 21
66.1458606788
 31
0.0
 70
   160
  1
2X <>
 71
     2
 42
-1.0
  3
SLDDIMSTYLE4
100
AcDbAlignedDimension
 13
100.8858682965
 23
88.9458606788
 33
0.0
 14
208.4158682965
 24
93.1458606788
 34
0.0
100
AcDbRotatedDimension
  0
DIMENSION
  5
167
330
1F
100
AcDbEntity
  8
0
  6
Continuous
 62
     7
370
    18
100
AcDbDimension
  2
_D_9
 10
73.8566375531
 20
93.1458606788
 30
0.0
 11
73.8566375531
 21
90.8103113562
 31
0.0
 70
   160
  1
2X <>
 71
     2
 42
-1.0
  3
SLDDIMSTYLE1
100
AcDbAlignedDimension
 13
101.6858682965
 23
88.1458606788
 33
0.0
 14
102.1358682965
 24
93.1458606788
 34
0.0
 50
90.0
100
AcDbRotatedDimension
  0
DIMENSION
  5
173
330
1F
100
AcDbEntity
  8
0
  6
Continuous
 62
     7
370
    18
100
AcDbDimension
  2
_D_10
 10
45.2256380375
 20
88.1458606788
 30
0.0
 11
45.2256380375
 21
122.3549769925
 31
0.0
 70
   160
  1
<>
 71
     2
 42
-1.0
  3
SLDDIMSTYLE4
100
AcDbAlignedDimension
 13
101.1278682965
 23
165.1958606788
 33
0.0
 14
101.6858682965
 24
88.1458606788
 34
0.0
 50
90.0
100
AcDbRotatedDimension
  0
INSERT
  5
189
330
1F
100
AcDbEntity
  8
0
  6
Continuous
 62
     7
370
     0
100
AcDbBlockReference
  2
SW_CENTERMARKSYMBOL_0
 10
110.0858682965
 20
95.4458606788
 30
0.0
  0
INSERT
  5
195
330
1F
100
AcDbEntity
  8
0
  6
Continuous
 62
     7
370
     0
100
AcDbBlockReference
  2
SW_CENTERMARKSYMBOL_1
 10
102.1358682965
 20
165.1958606788
 30
0.0
  0
INSERT
  5
1A1
330
1F
100
AcDbEntity
  8
0
  6
Continuous
 62
     7
370
     0
100
AcDbBlockReference
  2
SW_CENTERMARKSYMBOL_2
 10
102.1358682965
 20
92.6458606788
 30
0.0
  0
INSERT
  5
1AD
330
1F
100
AcDbEntity
  8
0
  6
Continuous
 62
     7
370
     0
100
AcDbBlockReference
  2
SW_CENTERMARKSYMBOL_3
 10
208.4158682965
 20
92.6458606788
 30
0.0
  0
INSERT
  5
1B9
330
1F
100
AcDbEntity
  8
0
  6
Continuous
 62
     7
370
     0
100
AcDbBlockReference
  2
SW_CENTERMARKSYMBOL_4
 10
208.4158682965
 20
190.6258606788
 30
0.0
  0
LINE
  5
1BA
330
1F
100
AcDbEntity
  8
0
  6
Continuous
 62
     7
370
    25
100
AcDbLine
 10
287.5095149203
 20
88.9458606788
 30
0.0
 11
288.5095149203
 21
88.9458606788
 31
0.0
  0
LINE
  5
1BB
330
1F
100
AcDbEntity
  8
0
  6
Continuous
 62
     7
370
    25
100
AcDbLine
 10
288.5095149203
 20
88.1458606788
 30
0.0
 11
287.5095149203
 21
88.1458606788
 31
0.0
  0
LINE
  5
1BC
330
1F
100
AcDbEntity
  8
0
  6
Continuous
 62
     7
370
    25
100
AcDbLine
 10
287.5095149203
 20
88.1458606788
 30
0.0
 11
287.5095149203
 21
88.9458606788
 31
0.0
  0
LINE
  5
1BD
330
1F
100
AcDbEntity
  8
0
  6
Continuous
 62
     7
370
    25
100
AcDbLine
 10
288.5095149203
 20
88.9458606788
 30
0.0
 11
288.5095149203
 21
88.1458606788
 31
0.0
  0
LINE
  5
1BE
330
1F
100
AcDbEntity
  8
0
  6
Continuous
 62
     7
370
    25
100
AcDbLine
 10
288.5095149203
 20
190.0258606788
 30
0.0
 11
287.5095149203
 21
190.0258606788
 31
0.0
  0
LINE
  5
1BF
330
1F
100
AcDbEntity
  8
0
  6
Continuous
 62
     7
370
    25
100
AcDbLine
 10
287.5095149203
 20
93.2458606788
 30
0.0
 11
288.5095149203
 21
93.2458606788
 31
0.0
  0
LINE
  5
1C0
330
1F
100
AcDbEntity
  8
0
  6
Continuous
 62
     7
370
    25
100
AcDbLine
 10
287.5095149203
 20
93.2458606788
 30
0.0
 11
287.5095149203
 21
190.0258606788
 31
0.0
  0
LINE
  5
1C1
330
1F
100
AcDbEntity
  8
0
  6
Continuous
 62
     7
370
    25
100
AcDbLine
 10
288.5095149203
 20
93.2458606788
 30
0.0
 11
288.5095149203
 21
190.0258606788
 31
0.0
  0
LINE
  5
1C2
330
1F
100
AcDbEntity
  8
0
  6
Continuous
 62
     7
370
    25
100
AcDbLine
 10
287.5095149203
 20
88.9458606788
 30
0.0
 11
287.5095149203
 21
92.0458606788
 31
0.0
  0
LINE
  5
1C3
330
1F
100
AcDbEntity
  8
0
  6
Continuous
 62
     7
370
    25
100
AcDbLine
 10
288.5095149203
 20
92.0458606788
 30
0.0
 11
287.5095149203
 21
92.0458606788
 31
0.0
  0
LINE
  5
1C4
330
1F
100
AcDbEntity
  8
0
  6
Continuous
 62
     7
370
    25
100
AcDbLine
 10
288.5095149203
 20
88.9458606788
 30
0.0
 11
288.5095149203
 21
92.0458606788
 31
0.0
  0
LINE
  5
1C5
330
1F
100
AcDbEntity
  8
0
  6
Continuous
 62
     7
370
    25
100
AcDbLine
 10
288.5095149203
 20
93.1458606788
 30
0.0
 11
287.5095149203
 21
93.1458606788
 31
0.0
  0
LINE
  5
1C6
330
1F
100
AcDbEntity
  8
0
  6
Continuous
 62
     7
370
    25
100
AcDbLine
 10
287.5095149203
 20
93.1458606788
 30
0.0
 11
287.5095149203
 21
93.2458606788
 31
0.0
  0
LINE
  5
1C7
330
1F
100
AcDbEntity
  8
0
  6
Continuous
 62
     7
370
    25
100
AcDbLine
 10
288.5095149203
 20
93.2458606788
 30
0.0
 11
288.5095149203
 21
93.1458606788
 31
0.0
  0
LINE
  5
1C8
330
1F
100
AcDbEntity
  8
0
  6
Continuous
 62
     7
370
    25
100
AcDbLine
 10
287.5095149203
 20
92.0458606788
 30
0.0
 11
287.5095149203
 21
92.1458606788
 31
0.0
  0
LINE
  5
1C9
330
1F
100
AcDbEntity
  8
0
  6
Continuous
 62
     7
370
    25
100
AcDbLine
 10
287.5095149203
 20
92.1458606788
 30
0.0
 11
288.5095149203
 21
92.1458606788
 31
0.0
  0
LINE
  5
1CA
330
1F
100
AcDbEntity
  8
0
  6
Continuous
 62
     7
370
    25
100
AcDbLine
 10
288.5095149203
 20
92.1458606788
 30
0.0
 11
288.5095149203
 21
92.0458606788
 31
0.0
  0
LINE
  5
1CB
330
1F
100
AcDbEntity
  8
0
  6
Continuous
 62
     7
370
    25
100
AcDbLine
 10
288.5095149203
 20
191.1258606788
 30
0.0
 11
287.5095149203
 21
191.1258606788
 31
0.0
  0
LINE
  5
1CC
330
1F
100
AcDbEntity
  8
0
  6
Continuous
 62
     7
370
    25
100
AcDbLine
 10
287.5095149203
 20
191.1258606788
 30
0.0
 11
287.5095149203
 21
191.2258606788
 31
0.0
  0
LINE
  5
1CD
330
1F
100
AcDbEntity
  8
0
  6
Continuous
 62
     7
370
    25
100
AcDbLine
 10
287.5095149203
 20
191.2258606788
 30
0.0
 11
288.5095149203
 21
191.2258606788
 31
0.0
  0
LINE
  5
1CE
330
1F
100
AcDbEntity
  8
0
  6
Continuous
 62
     7
370
    25
100
AcDbLine
 10
288.5095149203
 20
191.2258606788
 30
0.0
 11
288.5095149203
 21
191.1258606788
 31
0.0
  0
LINE
  5
1CF
330
1F
100
AcDbEntity
  8
0
  6
Continuous
 62
     7
370
    25
100
AcDbLine
 10
288.5095149203
 20
194.3258606788
 30
0.0
 11
287.5095149203
 21
194.3258606788
 31
0.0
  0
LINE
  5
1D0
330
1F
100
AcDbEntity
  8
0
  6
Continuous
 62
     7
370
    25
100
AcDbLine
 10
287.5095149203
 20
191.2258606788
 30
0.0
 11
287.5095149203
 21
194.3258606788
 31
0.0
  0
LINE
  5
1D1
330
1F
100
AcDbEntity
  8
0
  6
Continuous
 62
     7
370
    25
100
AcDbLine
 10
288.5095149203
 20
191.2258606788
 30
0.0
 11
288.5095149203
 21
194.3258606788
 31
0.0
  0
LINE
  5
1D2
330
1F
100
AcDbEntity
  8
0
  6
Continuous
 62
     7
370
    25
100
AcDbLine
 10
287.5095149203
 20
190.1258606788
 30
0.0
 11
288.5095149203
 21
190.1258606788
 31
0.0
  0
LINE
  5
1D3
330
1F
100
AcDbEntity
  8
0
  6
Continuous
 62
     7
370
    25
100
AcDbLine
 10
287.5095149203
 20
190.0258606788
 30
0.0
 11
287.5095149203
 21
190.1258606788
 31
0.0
  0
LINE
  5
1D4
330
1F
100
AcDbEntity
  8
0
  6
Continuous
 62
     7
370
    25
100
AcDbLine
 10
288.5095149203
 20
190.1258606788
 30
0.0
 11
288.5095149203
 21
190.0258606788
 31
0.0
  0
LINE
  5
1D5
330
1F
100
AcDbEntity
  8
0
  6
Continuous
 62
     7
370
    25
100
AcDbLine
 10
287.5095149203
 20
195.1258606788
 30
0.0
 11
288.5095149203
 21
195.1258606788
 31
0.0
  0
LINE
  5
1D6
330
1F
100
AcDbEntity
  8
0
  6
Continuous
 62
     7
370
    25
100
AcDbLine
 10
287.5095149203
 20
194.3258606788
 30
0.0
 11
287.5095149203
 21
195.1258606788
 31
0.0
  0
LINE
  5
1D7
330
1F
100
AcDbEntity
  8
0
  6
Continuous
 62
     7
370
    25
100
AcDbLine
 10
288.5095149203
 20
195.1258606788
 30
0.0
 11
288.5095149203
 21
194.3258606788
 31
0.0
  0
LINE
  5
1D8
330
1F
100
AcDbEntity
  8
0
  6
Continuous
 62
     7
370
    25
100
AcDbLine
 10
287.5095149203
 20
93.1458606788
 30
0.0
 11
287.5095149203
 21
92.1458606788
 31
0.0
  0
LINE
  5
1D9
330
1F
100
AcDbEntity
  8
0
  6
Continuous
 62
     7
370
    25
100
AcDbLine
 10
288.5095149203
 20
92.1458606788
 30
0.0
 11
288.5095149203
 21
93.1458606788
 31
0.0
  0
LINE
  5
1DA
330
1F
100
AcDbEntity
  8
0
  6
Continuous
 62
     7
370
    25
100
AcDbLine
 10
287.5095149203
 20
191.1258606788
 30
0.0
 11
287.5095149203
 21
190.1258606788
 31
0.0
  0
LINE
  5
1DB
330
1F
100
AcDbEntity
  8
0
  6
Continuous
 62
     7
370
    25
100
AcDbLine
 10
288.5095149203
 20
190.1258606788
 30
0.0
 11
288.5095149203
 21
191.1258606788
 31
0.0
  0
DIMENSION
  5
1DC
330
1F
100
AcDbEntity
  8
0
  6
Continuous
 62
     7
370
    18
100
AcDbDimension
  2
_D_11
 10
288.5095149203
 20
209.7831604092
 30
0.0
 11
309.4541692867
 21
209.7831604092
 31
0.0
 70
   160
  1
(<>)
 71
     2
 42
-1.0
  3
SLDDIMSTYLE1
100
AcDbAlignedDimension
 13
287.5095149203
 23
195.1258606788
 33
0.0
 14
288.5095149203
 24
195.1258606788
 34
0.0
100
AcDbRotatedDimension
  0
LINE
  5
1E9
330
1F
100
AcDbEntity
  8
0
  6
Continuous
 62
     7
370
    25
100
AcDbLine
 10
407.7003883624
 20
231.6672942937
 30
0.0
 11
408.4074951436
 21
232.0754983496
 31
0.0
  0
LINE
  5
1EA
330
1F
100
AcDbEntity
  8
0
  6
Continuous
 62
     7
370
    25
100
AcDbLine
 10
362.2731921165
 20
261.8070491966
 30
0.0
 11
361.5660853354
 21
261.3988451406
 31
0.0
  0
LINE
  5
1EB
330
1F
100
AcDbEntity
  8
0
  6
Continuous
 62
     7
370
    25
100
AcDbLine
 10
407.7003883624
 20
151.6626255451
 30
0.0
 11
408.4074951436
 21
152.0708296011
 31
0.0
  0
LINE
  5
1EC
330
1F
100
AcDbEntity
  8
0
  6
Continuous
 62
     7
370
    25
100
AcDbLine
 10
407.555385172
 20
147.8310086895
 30
0.0
 11
408.2624919532
 21
148.2392127454
 31
0.0
  0
LINE
  5
1ED
330
1F
100
AcDbEntity
  8
0
  6
Continuous
 62
     7
370
    25
100
AcDbLine
 10
331.6334226765
 20
256.386906619
 30
0.0
 11
330.9263158953
 21
255.9787025631
 31
0.0
  0
LINE
  5
1EE
330
1F
100
AcDbEntity
  8
0
  6
Continuous
 62
     7
370
    25
100
AcDbLine
 10
331.5298489691
 20
254.8270226924
 30
0.0
 11
330.8227421879
 21
254.4188186365
 31
0.0
  0
LINE
  5
1EF
330
1F
100
AcDbEntity
  8
0
  6
Continuous
 62
     7
370
    25
100
AcDbLine
 10
331.5298489691
 20
195.5869867901
 30
0.0
 11
330.8227421879
 21
195.1787827342
 31
0.0
  0
LWPOLYLINE
  5
1F0
330
1F
100
AcDbEntity
  8
0
  6
Continuous
 62
     7
370
    25
100
AcDbPolyline
 90
        9
 70
   128
 43
0.0
 10
331.6859109229
 20
253.9444331672
 10
331.8212099479
 20
253.8974044367
 10
331.9359109229
 20
253.9196908725
 10
332.0125516641
 20
254.0078995667
 10
332.0394643135
 20
254.1486015452
 10
332.0125516641
 20
254.3203762072
 10
331.9359109229
 20
254.4970724177
 10
331.8212099479
 20
254.6517897803
 10
331.6859109229
 20
254.7609739791
  0
LINE
  5
1F1
330
1F
100
AcDbEntity
  8
0
  6
Continuous
 62
     7
370
    25
100
AcDbLine
 10
331.6859109229
 20
254.7609739791
 30
0.0
 11
330.8727381245
 21
255.2304086434
 31
0.0
  0
ARC
  5
1F2
330
1F
100
AcDbEntity
  8
0
  6
Continuous
 62
     7
370
    25
100
AcDbCircle
 10
330.9555490566
 20
255.3598692154
 30
0.0
 40
0.1536804807569404
100
AcDbArc
 50
182.6054784856
 51
237.39452166
  0
LINE
  5
1F3
330
1F
100
AcDbEntity
  8
0
  6
Continuous
 62
     7
370
    25
100
AcDbLine
 10
330.8020274464
 20
255.7039956793
 30
0.0
 11
330.8020274464
 21
255.3528831301
 31
0.0
  0
ARC
  5
1F4
330
1F
100
AcDbEntity
  8
0
  6
Continuous
 62
     7
370
    25
100
AcDbCircle
 10
331.0606720669
 20
255.7459519974
 30
0.0
 40
0.2620255184571382
100
AcDbArc
 50
50.7967147643
 51
189.2140369904
  0
LINE
  5
1F5
330
1F
100
AcDbEntity
  8
0
  6
Continuous
 62
     7
370
    25
100
AcDbLine
 10
331.2262915151
 20
255.9489977328
 30
0.0
 11
359.3204765429
 21
239.7305699353
 31
0.0
  0
LWPOLYLINE
  5
1F6
330
1F
100
AcDbEntity
  8
0
  6
Continuous
 62
     7
370
    25
100
AcDbPolyline
 90
       11
 70
   128
 43
0.0
 10
359.3204765429
 20
239.7305699353
 10
359.652324156
 20
239.569157303
 10
359.9760005796
 20
239.4720370197
 10
360.2835358258
 20
239.4416005089
 10
360.5673573562
 20
239.4785972187
 10
360.8204765429
 20
239.5821161672
 10
361.0366607513
 20
239.7496083743
 10
361.2105868089
 20
239.9769496261
 10
361.3379720788
 20
240.2585420264
 10
361.4156799129
 20
240.5874518358
 10
361.4417968864
 20
240.9555802032
  0
LINE
  5
1F7
330
1F
100
AcDbEntity
  8
0
  6
Continuous
 62
     7
370
    25
100
AcDbLine
 10
361.4417968864
 20
240.9555802032
 30
0.0
 11
361.4417968864
 21
261.1241382568
 31
0.0
  0
ARC
  5
1F8
330
1F
100
AcDbEntity
  8
0
  6
Continuous
 62
     7
370
    25
100
AcDbCircle
 10
361.7004415069
 20
261.1660945749
 30
0.0
 40
0.2620255184571699
100
AcDbArc
 50
50.7967147643
 51
189.2140369905
  0
LINE
  5
1F9
330
1F
100
AcDbEntity
  8
0
  6
Continuous
 62
     7
370
    25
100
AcDbLine
 10
407.1554176789
 20
235.2241511854
 30
0.0
 11
361.8660609551
 21
261.3691403103
 31
0.0
  0
ARC
  5
1FA
330
1F
100
AcDbEntity
  8
0
  6
Continuous
 62
     7
370
    25
100
AcDbCircle
 10
406.4929302228
 20
234.1884666094
 30
0.0
 40
1.229443846057651
100
AcDbArc
 50
2.6054784857
 51
57.39452166
  0
LINE
  5
1FB
330
1F
100
AcDbEntity
  8
0
  6
Continuous
 62
     7
370
    25
100
AcDbLine
 10
407.7211031039
 20
231.7130787744
 30
0.0
 11
407.7211031039
 21
234.2443552912
 31
0.0
  0
ARC
  5
1FC
330
1F
100
AcDbEntity
  8
0
  6
Continuous
 62
     7
370
    25
100
AcDbCircle
 10
407.6779956671
 20
231.7060860547
 30
0.0
 40
0.0436709197428738
100
AcDbArc
 50
230.7967147642
 51
9.2140369906
  0
LINE
  5
1FD
330
1F
100
AcDbEntity
  8
0
  6
Continuous
 62
     7
370
    25
100
AcDbLine
 10
407.6503924258
 20
231.6722450988
 30
0.0
 11
406.8372196274
 21
232.1416797631
 31
0.0
  0
LWPOLYLINE
  5
1FE
330
1F
100
AcDbEntity
  8
0
  6
Continuous
 62
     7
370
    25
100
AcDbPolyline
 90
        9
 70
   128
 43
0.0
 10
406.8372196274
 20
232.1416797631
 10
406.7019206024
 20
232.1887084935
 10
406.5872196274
 20
232.1664220577
 10
406.5105788862
 20
232.0782133636
 10
406.4836662368
 20
231.9375113851
 10
406.5105788862
 20
231.765736723
 10
406.5872196274
 20
231.5890405125
 10
406.7019206024
 20
231.4343231499
 10
406.8372196274
 20
231.3251389512
  0
LINE
  5
1FF
330
1F
100
AcDbEntity
  8
0
  6
Continuous
 62
     7
370
    25
100
AcDbLine
 10
406.8372196274
 20
231.3251389512
 30
0.0
 11
407.6503924258
 21
230.8557042869
 31
0.0
  0
ARC
  5
200
330
1F
100
AcDbEntity
  8
0
  6
Continuous
 62
     7
370
    25
100
AcDbCircle
 10
407.5675814938
 20
230.7262437149
 30
0.0
 40
0.1536804807567527
100
AcDbArc
 50
2.6054784856
 51
57.3945216601
  0
LINE
  5
201
330
1F
100
AcDbEntity
  8
0
  6
Continuous
 62
     7
370
    25
100
AcDbLine
 10
407.7211031039
 20
151.7084100258
 30
0.0
 11
407.7211031039
 21
230.7332298001
 31
0.0
  0
ARC
  5
202
330
1F
100
AcDbEntity
  8
0
  6
Continuous
 62
     7
370
    25
100
AcDbCircle
 10
407.6779956671
 20
151.7014173061
 30
0.0
 40
0.0436709197428692
100
AcDbArc
 50
230.7967147642
 51
9.2140369905
  0
LINE
  5
203
330
1F
100
AcDbEntity
  8
0
  6
Continuous
 62
     7
370
    25
100
AcDbLine
 10
407.6503924258
 20
151.6675763502
 30
0.0
 11
406.8372196274
 21
152.1370110145
 31
0.0
  0
LWPOLYLINE
  5
204
330
1F
100
AcDbEntity
  8
0
  6
Continuous
 62
     7
370
    25
100
AcDbPolyline
 90
        9
 70
   128
 43
0.0
 10
406.8372196274
 20
152.1370110145
 10
406.7019206024
 20
152.1840397449
 10
406.5872196274
 20
152.1617533092
 10
406.5105788862
 20
152.073544615
 10
406.4836662368
 20
151.9328426365
 10
406.5105788862
 20
151.7610679744
 10
406.5872196274
 20
151.584371764
 10
406.7019206024
 20
151.4296544014
 10
406.8372196274
 20
151.3204702026
  0
LINE
  5
205
330
1F
100
AcDbEntity
  8
0
  6
Continuous
 62
     7
370
    25
100
AcDbLine
 10
406.8372196274
 20
151.3204702026
 30
0.0
 11
407.6503924258
 21
150.8510355383
 31
0.0
  0
ARC
  5
206
330
1F
100
AcDbEntity
  8
0
  6
Continuous
 62
     7
370
    25
100
AcDbCircle
 10
407.5675814938
 20
150.7215749663
 30
0.0
 40
0.1536804807568073
100
AcDbArc
 50
2.6054784856
 51
57.3945216601
  0
LINE
  5
207
330
1F
100
AcDbEntity
  8
0
  6
Continuous
 62
     7
370
    25
100
AcDbLine
 10
407.7211031039
 20
148.1972845347
 30
0.0
 11
407.7211031039
 21
150.7285610515
 31
0.0
  0
ARC
  5
208
330
1F
100
AcDbEntity
  8
0
  6
Continuous
 62
     7
370
    25
100
AcDbCircle
 10
407.3762436099
 20
148.1413427772
 30
0.0
 40
0.3493673579427822
100
AcDbArc
 50
230.7967147643
 51
9.2140369905
  0
LINE
  5
209
330
1F
100
AcDbEntity
  8
0
  6
Continuous
 62
     7
370
    25
100
AcDbLine
 10
331.3677128714
 20
191.6219258425
 30
0.0
 11
407.1554176789
 21
147.8706151299
 31
0.0
  0
ARC
  5
20A
330
1F
100
AcDbEntity
  8
0
  6
Continuous
 62
     7
370
    25
100
AcDbCircle
 10
332.0302003275
 20
192.6576104185
 30
0.0
 40
1.229443846057573
100
AcDbArc
 50
182.6054784857
 51
237.39452166
  0
LINE
  5
20B
330
1F
100
AcDbEntity
  8
0
  6
Continuous
 62
     7
370
    25
100
AcDbLine
 10
330.8020274464
 20
195.1329982536
 30
0.0
 11
330.8020274464
 21
192.6017217367
 31
0.0
  0
ARC
  5
20C
330
1F
100
AcDbEntity
  8
0
  6
Continuous
 62
     7
370
    25
100
AcDbCircle
 10
330.8451348832
 20
195.1399909733
 30
0.0
 40
0.0436709197428649
100
AcDbArc
 50
50.7967147642
 51
189.2140369905
  0
LINE
  5
20D
330
1F
100
AcDbEntity
  8
0
  6
Continuous
 62
     7
370
    25
100
AcDbLine
 10
330.8727381245
 20
195.1738319292
 30
0.0
 11
331.6859109229
 21
194.7043972649
 31
0.0
  0
LWPOLYLINE
  5
20E
330
1F
100
AcDbEntity
  8
0
  6
Continuous
 62
     7
370
    25
100
AcDbPolyline
 90
        9
 70
   128
 43
0.0
 10
331.6859109229
 20
194.7043972649
 10
331.8212099479
 20
194.6573685344
 10
331.9359109229
 20
194.6796549702
 10
332.0125516641
 20
194.7678636644
 10
332.0394643135
 20
194.9085656429
 10
332.0125516641
 20
195.0803403049
 10
331.9359109229
 20
195.2570365154
 10
331.8212099479
 20
195.411753878
 10
331.6859109229
 20
195.5209380768
  0
LINE
  5
20F
330
1F
100
AcDbEntity
  8
0
  6
Continuous
 62
     7
370
    25
100
AcDbLine
 10
331.6859109229
 20
195.5209380768
 30
0.0
 11
330.8727381245
 21
195.9903727411
 31
0.0
  0
ARC
  5
210
330
1F
100
AcDbEntity
  8
0
  6
Continuous
 62
     7
370
    25
100
AcDbCircle
 10
330.9555490566
 20
196.1198333131
 30
0.0
 40
0.1536804807568858
100
AcDbArc
 50
182.6054784856
 51
237.39452166
  0
LINE
  5
211
330
1F
100
AcDbEntity
  8
0
  6
Continuous
 62
     7
370
    25
100
AcDbLine
 10
330.8020274464
 20
254.3730341559
 30
0.0
 11
330.8020274464
 21
196.1128472278
 31
0.0
  0
ARC
  5
212
330
1F
100
AcDbEntity
  8
0
  6
Continuous
 62
     7
370
    25
100
AcDbCircle
 10
330.8451348832
 20
254.3800268756
 30
0.0
 40
0.043670919742873
100
AcDbArc
 50
50.7967147643
 51
189.2140369905
  0
LINE
  5
213
330
1F
100
AcDbEntity
  8
0
  6
Continuous
 62
     7
370
    25
100
AcDbLine
 10
330.8727381245
 20
254.4138678315
 30
0.0
 11
331.6859109229
 21
253.9444331672
 31
0.0
  0
LWPOLYLINE
  5
214
330
1F
100
AcDbEntity
  8
0
  6
Continuous
 62
     7
370
    25
100
AcDbPolyline
 90
       42
 70
   128
 43
0.0
 10
339.4287301769
 20
192.9291475319
 10
339.4038692014
 20
193.3174325789
 10
339.3298689953
 20
193.7253204248
 10
339.2084640605
 20
194.1432505242
 10
339.0425000259
 20
194.5614269498
 10
338.8358669478
 20
194.9700480005
 10
338.5934081304
 20
195.3595359453
 10
338.3208066029
 20
195.7207615169
 10
338.024451914
 20
196.045257894
 10
337.7112903664
 20
196.3254191566
 10
337.3886622015
 20
196.5546785622
 10
337.06412955
 20
196.7276624645
 10
336.7452991821
 20
196.8403162675
 10
336.4396442114
 20
196.8899994617
 10
336.1543289314
 20
196.8755475149
 10
335.8960408905
 20
196.7972991686
 10
335.6708341413
 20
196.6570884977
 10
335.4839873393
 20
196.4582019215
 10
335.3398800151
 20
196.2053011728
 10
335.2418899222
 20
195.9043140308
 10
335.1923138654
 20
195.5622953789
 10
335.1923138654
 20
195.1872618446
 10
335.2418899222
 20
194.7880038959
 10
335.3398800151
 20
194.3738798008
 10
335.4839873393
 20
193.9545962771
 10
335.6708341413
 20
193.5399809752
 10
335.8960408905
 20
193.1397521265
 10
336.1543289314
 20
192.7632907557
 10
336.4396442114
 20
192.4194207986
 10
336.7452991821
 20
192.1162022753
 10
337.06412955
 20
191.8607423711
 10
337.3886622015
 20
191.6590288496
 10
337.7112903664
 20
191.5157897047
 10
338.024451914
 20
191.4343823408
 10
338.3208066029
 20
191.4167148772
 10
338.5934081304
 20
191.4632014245
 10
338.8358669478
 20
191.5727523774
 10
339.0425000259
 20
191.7427999543
 10
339.2084640605
 20
191.9693583843
 10
339.3298689953
 20
192.2471173296
 10
339.4038692014
 20
192.5695663561
 10
339.4287301769
 20
192.9291475319
  0
LINE
  5
215
330
1F
100
AcDbEntity
  8
0
  6
Continuous
 62
     7
370
    25
100
AcDbLine
 10
407.1554176789
 20
235.2241511854
 30
0.0
 11
407.8625244601
 21
235.6323552414
 31
0.0
  0
ARC
  5
216
330
1F
100
AcDbEntity
  8
0
  6
Continuous
 62
     7
370
    25
100
AcDbCircle
 10
407.200037004
 20
234.5966706653
 30
0.0
 40
1.229443846057535
100
AcDbArc
 50
2.6054784857
 51
57.39452166
  0
LINE
  5
217
330
1F
100
AcDbEntity
  8
0
  6
Continuous
 62
     7
370
    25
100
AcDbLine
 10
408.4282098851
 20
234.6525593471
 30
0.0
 11
407.7211031039
 21
234.2443552912
 31
0.0
  0
LINE
  5
218
330
1F
100
AcDbEntity
  8
0
  6
Continuous
 62
     7
370
    25
100
AcDbLine
 10
408.4282098851
 20
232.1212828303
 30
0.0
 11
408.4282098851
 21
234.6525593471
 31
0.0
  0
LINE
  5
219
330
1F
100
AcDbEntity
  8
0
  6
Continuous
 62
     7
370
    25
100
AcDbLine
 10
407.7211031039
 20
231.7130787744
 30
0.0
 11
408.4282098851
 21
232.1212828303
 31
0.0
  0
LINE
  5
21A
330
1F
100
AcDbEntity
  8
0
  6
Continuous
 62
     7
370
    25
100
AcDbLine
 10
362.5731677363
 20
261.7773443663
 30
0.0
 11
361.8660609551
 21
261.3691403103
 31
0.0
  0
LINE
  5
21B
330
1F
100
AcDbEntity
  8
0
  6
Continuous
 62
     7
370
    25
100
AcDbLine
 10
407.8625244601
 20
235.6323552414
 30
0.0
 11
362.5731677363
 21
261.7773443663
 31
0.0
  0
ARC
  5
21C
330
1F
100
AcDbEntity
  8
0
  6
Continuous
 62
     7
370
    25
100
AcDbCircle
 10
408.3806413295
 20
232.1152264274
 30
0.0
 40
0.0479525546091242
100
AcDbArc
 50
304.0563508078
 51
7.2558295856
  0
LINE
  5
21D
330
1F
100
AcDbEntity
  8
0
  6
Continuous
 62
     7
370
    25
100
AcDbLine
 10
408.4282098851
 20
231.141433856
 30
0.0
 11
407.7211031039
 21
230.7332298001
 31
0.0
  0
LINE
  5
21E
330
1F
100
AcDbEntity
  8
0
  6
Continuous
 62
     7
370
    25
100
AcDbLine
 10
407.6503924258
 20
230.8557042869
 30
0.0
 11
408.357499207
 21
231.2639083428
 31
0.0
  0
ARC
  5
21F
330
1F
100
AcDbEntity
  8
0
  6
Continuous
 62
     7
370
    25
100
AcDbCircle
 10
408.2746882749
 20
231.1344477708
 30
0.0
 40
0.1536804807572626
100
AcDbArc
 50
2.6054784857
 51
57.39452166
  0
LINE
  5
220
330
1F
100
AcDbEntity
  8
0
  6
Continuous
 62
     7
370
    25
100
AcDbLine
 10
407.7211031039
 20
151.7084100258
 30
0.0
 11
408.4282098851
 21
152.1166140817
 31
0.0
  0
LINE
  5
221
330
1F
100
AcDbEntity
  8
0
  6
Continuous
 62
     7
370
    25
100
AcDbLine
 10
408.4282098851
 20
152.1166140817
 30
0.0
 11
408.4282098851
 21
231.141433856
 31
0.0
  0
LINE
  5
222
330
1F
100
AcDbEntity
  8
0
  6
Continuous
 62
     7
370
    25
100
AcDbLine
 10
407.5443264086
 20
231.7333430071
 30
0.0
 11
406.8372196274
 21
231.3251389512
 31
0.0
  0
LINE
  5
223
330
1F
100
AcDbEntity
  8
0
  6
Continuous
 62
     7
370
    25
100
AcDbLine
 10
408.357499207
 20
231.2639083428
 30
0.0
 11
407.5443264086
 21
231.7333430071
 31
0.0
  0
LINE
  5
224
330
1F
100
AcDbEntity
  8
0
  6
Continuous
 62
     7
370
    25
100
AcDbLine
 10
407.5443264086
 20
231.7333430071
 30
0.0
 11
407.5353128492
 21
231.7386791242
 31
0.0
  0
ARC
  5
225
330
1F
100
AcDbEntity
  8
0
  6
Continuous
 62
     7
370
    25
100
AcDbCircle
 10
362.3974157034
 20
261.5320155688
 30
0.0
 40
0.3017863415409919
100
AcDbArc
 50
54.3824225248
 51
114.3071190461
  0
LINE
  5
226
330
1F
100
AcDbEntity
  8
0
  6
Continuous
 62
     7
370
    25
100
AcDbLine
 10
360.0275833241
 20
240.1387739912
 30
0.0
 11
359.3204765429
 21
239.7305699353
 31
0.0
  0
ARC
  5
227
330
1F
100
AcDbEntity
  8
0
  6
Continuous
 62
     7
370
    25
100
AcDbCircle
 10
360.9900946374
 20
241.6208715054
 30
0.0
 40
1.767212797000771
100
AcDbArc
 50
236.9992948342
 51
274.5945747757
  0
LINE
  5
228
330
1F
100
AcDbEntity
  8
0
  6
Continuous
 62
     7
370
    25
100
AcDbLine
 10
331.9333982963
 20
256.3572017888
 30
0.0
 11
331.2262915151
 21
255.9489977328
 31
0.0
  0
LINE
  5
229
330
1F
100
AcDbEntity
  8
0
  6
Continuous
 62
     7
370
    25
100
AcDbLine
 10
360.0275833241
 20
240.1387739912
 30
0.0
 11
331.9333982963
 21
256.3572017888
 31
0.0
  0
ARC
  5
22A
330
1F
100
AcDbEntity
  8
0
  6
Continuous
 62
     7
370
    25
100
AcDbCircle
 10
408.3806413294
 20
152.1105576789
 30
0.0
 40
0.0479525547192877
100
AcDbArc
 50
304.0563508888
 51
7.2558295047
  0
LINE
  5
22B
330
1F
100
AcDbEntity
  8
0
  6
Continuous
 62
     7
370
    25
100
AcDbLine
 10
408.4282098851
 20
151.1367651074
 30
0.0
 11
407.7211031039
 21
150.7285610515
 31
0.0
  0
LINE
  5
22C
330
1F
100
AcDbEntity
  8
0
  6
Continuous
 62
     7
370
    25
100
AcDbLine
 10
407.6503924258
 20
150.8510355383
 30
0.0
 11
408.357499207
 21
151.2592395942
 31
0.0
  0
ARC
  5
22D
330
1F
100
AcDbEntity
  8
0
  6
Continuous
 62
     7
370
    25
100
AcDbCircle
 10
408.2746882749
 20
151.1297790222
 30
0.0
 40
0.1536804807570495
100
AcDbArc
 50
2.6054784856
 51
57.39452166
  0
LINE
  5
22E
330
1F
100
AcDbEntity
  8
0
  6
Continuous
 62
     7
370
    25
100
AcDbLine
 10
407.7211031039
 20
148.1972845347
 30
0.0
 11
408.4282098851
 21
148.6054885906
 31
0.0
  0
LINE
  5
22F
330
1F
100
AcDbEntity
  8
0
  6
Continuous
 62
     7
370
    25
100
AcDbLine
 10
408.4282098851
 20
148.6054885906
 30
0.0
 11
408.4282098851
 21
151.1367651074
 31
0.0
  0
LINE
  5
230
330
1F
100
AcDbEntity
  8
0
  6
Continuous
 62
     7
370
    25
100
AcDbLine
 10
407.5443264086
 20
151.7286742585
 30
0.0
 11
406.8372196274
 21
151.3204702026
 31
0.0
  0
LINE
  5
231
330
1F
100
AcDbEntity
  8
0
  6
Continuous
 62
     7
370
    25
100
AcDbLine
 10
408.357499207
 20
151.2592395942
 30
0.0
 11
407.5443264086
 21
151.7286742585
 31
0.0
  0
LINE
  5
232
330
1F
100
AcDbEntity
  8
0
  6
Continuous
 62
     7
370
    25
100
AcDbLine
 10
407.5443264086
 20
151.7286742585
 30
0.0
 11
407.5353128492
 21
151.7340103757
 31
0.0
  0
ARC
  5
233
330
1F
100
AcDbEntity
  8
0
  6
Continuous
 62
     7
370
    25
100
AcDbCircle
 10
408.0476614403
 20
148.5570373677
 30
0.0
 40
0.3836204371531657
100
AcDbArc
 50
304.0563508335
 51
7.2558295599
  0
ARC
  5
234
330
1F
100
AcDbEntity
  8
0
  6
Continuous
 62
     7
370
    25
100
AcDbCircle
 10
331.7576462634
 20
256.1118729913
 30
0.0
 40
0.3017863415412794
100
AcDbArc
 50
54.3824225248
 51
114.3071190461
  0
LINE
  5
235
330
1F
100
AcDbEntity
  8
0
  6
Continuous
 62
     7
370
    25
100
AcDbLine
 10
331.5798449057
 20
254.8220718874
 30
0.0
 11
330.8727381245
 21
254.4138678315
 31
0.0
  0
LINE
  5
236
330
1F
100
AcDbEntity
  8
0
  6
Continuous
 62
     7
370
    25
100
AcDbLine
 10
331.6949244823
 20
254.7556378619
 30
0.0
 11
331.5798449057
 21
254.8220718874
 31
0.0
  0
ARC
  5
237
330
1F
100
AcDbEntity
  8
0
  6
Continuous
 62
     7
370
    25
100
AcDbCircle
 10
331.5505529002
 20
254.7811837545
 30
0.0
 40
0.050297723590167
100
AcDbArc
 50
54.3824225249
 51
114.3071190461
  0
LWPOLYLINE
  5
238
330
1F
100
AcDbEntity
  8
0
  6
Continuous
 62
     7
370
    25
100
AcDbPolyline
 90
       20
 70
   128
 43
0.0
 10
339.1185896977
 20
191.8329050321
 10
339.0279133841
 20
191.8249189332
 10
338.7315586952
 20
191.8425863967
 10
338.4183971476
 20
191.9239937607
 10
338.0957689827
 20
192.0672329055
 10
337.7712363312
 20
192.268946427
 10
337.4524059632
 20
192.5244063312
 10
337.1467509926
 20
192.8276248545
 10
336.8614357126
 20
193.1714948117
 10
336.6031476717
 20
193.5479561824
 10
336.3779409225
 20
193.9481850312
 10
336.1910941205
 20
194.362800333
 10
336.0469867963
 20
194.7820838567
 10
335.9489967034
 20
195.1962079518
 10
335.8994206466
 20
195.5954659005
 10
335.8994206466
 20
195.9704994348
 10
335.9489967034
 20
196.3125180867
 10
336.0469867963
 20
196.6135052287
 10
336.1910941205
 20
196.8664059775
 10
336.2033367501
 20
196.882818423
  0
LINE
  5
239
330
1F
100
AcDbEntity
  8
0
  6
Continuous
 62
     7
370
    25
100
AcDbLine
 10
331.5798449057
 20
195.5820359851
 30
0.0
 11
330.8727381245
 21
195.1738319292
 31
0.0
  0
LINE
  5
23A
330
1F
100
AcDbEntity
  8
0
  6
Continuous
 62
     7
370
    25
100
AcDbLine
 10
331.6949244823
 20
195.5156019596
 30
0.0
 11
331.5798449057
 21
195.5820359851
 31
0.0
  0
ARC
  5
23B
330
1F
100
AcDbEntity
  8
0
  6
Continuous
 62
     7
370
    25
100
AcDbCircle
 10
331.5505529002
 20
195.5411478522
 30
0.0
 40
0.050297723590167
100
AcDbArc
 50
54.3824225248
 51
114.3071190461
  0
LINE
  5
23C
330
1F
100
AcDbEntity
  8
0
  6
Continuous
 62
     8
370
    25
100
AcDbLine
 10
332.0394643088
 20
254.1485351924
 30
0.0
 11
331.6859109229
 21
253.9444331672
 31
0.0
  0
LINE
  5
23D
330
1F
100
AcDbEntity
  8
0
  6
Continuous
 62
     8
370
    25
100
AcDbLine
 10
332.0394643088
 20
194.9084992901
 30
0.0
 11
331.6859109229
 21
194.7043972649
 31
0.0
  0
ARC
  5
23E
330
1F
100
AcDbEntity
  8
0
  6
Continuous
 62
     7
370
    25
100
AcDbCircle
 10
482.837177615
 20
285.8902644121
 30
0.0
 40
2.500000000000114
100
AcDbArc
 50
270.0
 51
90.0
  0
LINE
  5
23F
330
1F
100
AcDbEntity
  8
0
  6
Continuous
 62
     7
370
    25
100
AcDbLine
 10
482.837177615
 20
288.3902644121
 30
0.0
 11
477.087177615
 21
288.3902644121
 31
0.0
  0
ARC
  5
240
330
1F
100
AcDbEntity
  8
0
  6
Continuous
 62
     7
370
    25
100
AcDbCircle
 10
477.087177615
 20
288.8902644121
 30
0.0
 40
0.5
100
AcDbArc
 50
180.0
 51
270.0
  0
ARC
  5
241
330
1F
100
AcDbEntity
  8
0
  6
Continuous
 62
     7
370
    25
100
AcDbCircle
 10
479.587177615
 20
291.0402644121
 30
0.0
 40
3.0
100
AcDbArc
 50
90.0
 51
180.0
  0
LINE
  5
242
330
1F
100
AcDbEntity
  8
0
  6
Continuous
 62
     7
370
    25
100
AcDbLine
 10
479.587177615
 20
294.0402644121
 30
0.0
 11
678.2430650653
 21
294.0402644121
 31
0.0
  0
ARC
  5
243
330
1F
100
AcDbEntity
  8
0
  6
Continuous
 62
     7
370
    25
100
AcDbCircle
 10
678.2430650653
 20
309.0402644121
 30
0.0
 40
14.99999999999989
100
AcDbArc
 50
270.0
 51
0.0
  0
LINE
  5
244
330
1F
100
AcDbEntity
  8
0
  6
Continuous
 62
     7
370
    25
100
AcDbLine
 10
693.2430650653
 20
309.0402644121
 30
0.0
 11
693.2430650653
 21
432.5402644121
 31
0.0
  0
ARC
  5
245
330
1F
100
AcDbEntity
  8
0
  6
Continuous
 62
     7
370
    25
100
AcDbCircle
 10
696.2430650653
 20
432.5402644121
 30
0.0
 40
3.0
100
AcDbArc
 50
90.0
 51
180.0
  0
ARC
  5
246
330
1F
100
AcDbEntity
  8
0
  6
Continuous
 62
     7
370
    25
100
AcDbCircle
 10
1016.487177615
 20
431.5402644121
 30
0.0
 40
4.0
100
AcDbArc
 50
0.0
 51
90.0
  0
ARC
  5
247
330
1F
100
AcDbEntity
  8
0
  6
Continuous
 62
     7
370
    25
100
AcDbCircle
 10
1019.987177615
 20
416.0402644121
 30
0.0
 40
0.5000000000002274
100
AcDbArc
 50
270.0
 51
0.0
  0
LINE
  5
248
330
1F
100
AcDbEntity
  8
0
  6
Continuous
 62
     7
370
    25
100
AcDbLine
 10
1019.987177615
 20
415.5402644121
 30
0.0
 11
1014.237177615
 21
415.5402644121
 31
0.0
  0
ARC
  5
249
330
1F
100
AcDbEntity
  8
0
  6
Continuous
 62
     7
370
    25
100
AcDbCircle
 10
1014.237177615
 20
413.0402644121
 30
0.0
 40
2.500000000000057
100
AcDbArc
 50
90.0
 51
270.0
  0
LINE
  5
24A
330
1F
100
AcDbEntity
  8
0
  6
Continuous
 62
     7
370
    25
100
AcDbLine
 10
1014.237177615
 20
410.5402644121
 30
0.0
 11
1019.987177615
 21
410.5402644121
 31
0.0
  0
ARC
  5
24B
330
1F
100
AcDbEntity
  8
0
  6
Continuous
 62
     7
370
    25
100
AcDbCircle
 10
1019.987177615
 20
410.0402644121
 30
0.0
 40
0.5000000000002274
100
AcDbArc
 50
0.0
 51
90.0
  0
ARC
  5
24C
330
1F
100
AcDbEntity
  8
0
  6
Continuous
 62
     7
370
    25
100
AcDbCircle
 10
1019.987177615
 20
-73.8597355879
 30
0.0
 40
0.5
100
AcDbArc
 50
270.0
 51
0.0
  0
LINE
  5
24D
330
1F
100
AcDbEntity
  8
0
  6
Continuous
 62
     7
370
    25
100
AcDbLine
 10
1019.987177615
 20
-74.3597355879
 30
0.0
 11
1014.237177615
 21
-74.3597355879
 31
0.0
  0
ARC
  5
24E
330
1F
100
AcDbEntity
  8
0
  6
Continuous
 62
     7
370
    25
100
AcDbCircle
 10
1014.237177615
 20
-76.8597355879
 30
0.0
 40
2.500000000000142
100
AcDbArc
 50
90.0
 51
270.0
  0
LINE
  5
24F
330
1F
100
AcDbEntity
  8
0
  6
Continuous
 62
     7
370
    25
100
AcDbLine
 10
1014.237177615
 20
-79.3597355879
 30
0.0
 11
1019.987177615
 21
-79.3597355879
 31
0.0
  0
ARC
  5
250
330
1F
100
AcDbEntity
  8
0
  6
Continuous
 62
     7
370
    25
100
AcDbCircle
 10
1019.987177615
 20
-79.8597355879
 30
0.0
 40
0.5
100
AcDbArc
 50
0.0
 51
90.0
  0
ARC
  5
251
330
1F
100
AcDbEntity
  8
0
  6
Continuous
 62
     7
370
    25
100
AcDbCircle
 10
1016.487177615
 20
-95.3597355879
 30
0.0
 40
4.000000000000071
100
AcDbArc
 50
270.0
 51
0.0
  0
ARC
  5
252
330
1F
100
AcDbEntity
  8
0
  6
Continuous
 62
     7
370
    25
100
AcDbCircle
 10
480.587177615
 20
-95.3597355879
 30
0.0
 40
4.000000000000014
100
AcDbArc
 50
180.0
 51
270.0
  0
ARC
  5
253
330
1F
100
AcDbEntity
  8
0
  6
Continuous
 62
     7
370
    25
100
AcDbCircle
 10
477.087177615
 20
-79.8597355879
 30
0.0
 40
0.5
100
AcDbArc
 50
90.0
 51
180.0
  0
LINE
  5
254
330
1F
100
AcDbEntity
  8
0
  6
Continuous
 62
     7
370
    25
100
AcDbLine
 10
477.087177615
 20
-79.3597355879
 30
0.0
 11
482.837177615
 21
-79.3597355879
 31
0.0
  0
ARC
  5
255
330
1F
100
AcDbEntity
  8
0
  6
Continuous
 62
     7
370
    25
100
AcDbCircle
 10
482.837177615
 20
-76.8597355879
 30
0.0
 40
2.500000000000114
100
AcDbArc
 50
270.0
 51
90.0
  0
LINE
  5
256
330
1F
100
AcDbEntity
  8
0
  6
Continuous
 62
     7
370
    25
100
AcDbLine
 10
482.837177615
 20
-74.3597355879
 30
0.0
 11
477.087177615
 21
-74.3597355879
 31
0.0
  0
ARC
  5
257
330
1F
100
AcDbEntity
  8
0
  6
Continuous
 62
     7
370
    25
100
AcDbCircle
 10
477.087177615
 20
-73.8597355879
 30
0.0
 40
0.5
100
AcDbArc
 50
180.0
 51
270.0
  0
ARC
  5
258
330
1F
100
AcDbEntity
  8
0
  6
Continuous
 62
     7
370
    25
100
AcDbCircle
 10
477.087177615
 20
282.8902644121
 30
0.0
 40
0.5000000000000568
100
AcDbArc
 50
90.0
 51
180.0
  0
LINE
  5
259
330
1F
100
AcDbEntity
  8
0
  6
Continuous
 62
     7
370
    25
100
AcDbLine
 10
477.087177615
 20
283.3902644121
 30
0.0
 11
482.837177615
 21
283.3902644121
 31
0.0
  0
CIRCLE
  5
25A
330
1F
100
AcDbEntity
  8
0
  6
Continuous
 62
     7
370
    25
100
AcDbCircle
 10
522.587177615
 20
-62.8597355879
 30
0.0
 40
15.0
  0
LINE
  5
25B
330
1F
100
AcDbEntity
  8
0
  6
Continuous
 62
     7
370
    25
100
AcDbLine
 10
1020.487177615
 20
-95.3597355879
 30
0.0
 11
1020.487177615
 21
-79.8597355879
 31
0.0
  0
LINE
  5
25C
330
1F
100
AcDbEntity
  8
0
  6
Continuous
 62
     7
370
    25
100
AcDbLine
 10
480.587177615
 20
-99.3597355879
 30
0.0
 11
1016.487177615
 21
-99.3597355879
 31
0.0
  0
LINE
  5
25D
330
1F
100
AcDbEntity
  8
0
  6
Continuous
 62
     7
370
    25
100
AcDbLine
 10
476.587177615
 20
291.0402644121
 30
0.0
 11
476.587177615
 21
288.8902644121
 31
0.0
  0
LINE
  5
25E
330
1F
100
AcDbEntity
  8
0
  6
Continuous
 62
     7
370
    25
100
AcDbLine
 10
476.587177615
 20
282.8902644121
 30
0.0
 11
476.587177615
 21
-73.8597355879
 31
0.0
  0
LINE
  5
25F
330
1F
100
AcDbEntity
  8
0
  6
Continuous
 62
     7
370
    25
100
AcDbLine
 10
1020.487177615
 20
416.0402644121
 30
0.0
 11
1020.487177615
 21
431.5402644121
 31
0.0
  0
LINE
  5
260
330
1F
100
AcDbEntity
  8
0
  6
Continuous
 62
     7
370
    25
100
AcDbLine
 10
1020.487177615
 20
-73.8597355879
 30
0.0
 11
1020.487177615
 21
410.0402644121
 31
0.0
  0
LINE
  5
261
330
1F
100
AcDbEntity
  8
0
  6
Continuous
 62
     7
370
    25
100
AcDbLine
 10
476.587177615
 20
-79.8597355879
 30
0.0
 11
476.587177615
 21
-95.3597355879
 31
0.0
  0
LINE
  5
262
330
1F
100
AcDbEntity
  8
0
  6
Continuous
 62
     7
370
    25
100
AcDbLine
 10
1016.487177615
 20
435.5402644121
 30
0.0
 11
696.2430650653
 21
435.5402644121
 31
0.0
  0
ENDSEC
  0
SECTION
  2
OBJECTS
  0
DICTIONARY
  5
C
330
0
100
AcDbDictionary
281
     1
  3
ACAD_GROUP
350
D
  3
ACAD_LAYOUT
350
1A
  3
ACAD_MLINESTYLE
350
17
  3
ACAD_PLOTSETTINGS
350
19
  3
ACAD_PLOTSTYLENAME
350
E
  3
ACAD_SCALELIST
350
47
  0
DICTIONARY
  5
D
102
{ACAD_REACTORS
330
C
102
}
330
C
100
AcDbDictionary
281
     1
  0
DICTIONARY
  5
1A
102
{ACAD_REACTORS
330
C
102
}
330
C
100
AcDbDictionary
281
     1
  3
Layout1
350
1E
  3
Layout2
350
26
  3
Model
350
22
  0
DICTIONARY
  5
17
102
{ACAD_REACTORS
330
C
102
}
330
C
100
AcDbDictionary
281
     1
  3
Standard
350
18
  0
DICTIONARY
  5
19
102
{ACAD_REACTORS
330
C
102
}
330
C
100
AcDbDictionary
281
     1
  0
ACDBDICTIONARYWDFLT
  5
E
102
{ACAD_REACTORS
330
C
102
}
330
C
100
AcDbDictionary
281
     1
  3
Normal
350
F
100
AcDbDictionaryWithDefault
340
F
  0
DICTIONARY
  5
47
102
{ACAD_REACTORS
330
C
102
}
330
C
100
AcDbDictionary
281
     1
  3
A0
350
48
  3
A1
350
49
  3
A2
350
4A
  3
A3
350
4B
  3
A4
350
4C
  3
A5
350
4D
  3
A6
350
4E
  3
A7
350
4F
  3
A8
350
50
  3
A9
350
51
  3
B0
350
52
  3
B1
350
53
  3
B2
350
54
  3
B3
350
55
  3
B4
350
56
  3
B5
350
57
  3
B6
350
58
  3
B7
350
59
  3
B8
350
5A
  3
B9
350
5B
  3
C0
350
5C
  3
C1
350
5D
  3
C2
350
5E
  3
C3
350
5F
  3
C4
350
60
  3
C5
350
61
  3
C6
350
62
  3
C7
350
63
  3
C8
350
64
  3
C9
350
65
  3
D0
350
66
  3
D1
350
67
  3
D2
350
68
  0
LAYOUT
  5
1E
102
{ACAD_REACTORS
330
1A
102
}
330
1A
100
AcDbPlotSettings
  1

  2
none_device
  4

  6

 40
0.0
 41
0.0
 42
0.0
 43
0.0
 44
0.0
 45
0.0
 46
0.0
 47
0.0
 48
0.0
 49
0.0
140
0.0
141
0.0
142
1.0
143
1.0
 70
   688
 72
     1
 73
     0
 74
     5
  7

 75
    16
147
1.0
148
0.0
149
0.0
100
AcDbLayout
  1
Layout1
 70
     1
 71
     1
 10
0.0
 20
0.0
 11
420.0
 21
297.0
 12
0.0
 22
0.0
 32
0.0
 14
1.0000000000E+20
 24
1.0000000000E+20
 34
1.0000000000E+20
 15
-1.0000000000E+20
 25
-1.0000000000E+20
 35
-1.0000000000E+20
146
0.0
 13
0.0
 23
0.0
 33
0.0
 16
1.0
 26
0.0
 36
0.0
 17
0.0
 27
1.0
 37
0.0
 76
     0
330
1B
  0
LAYOUT
  5
26
102
{ACAD_REACTORS
330
1A
102
}
330
1A
100
AcDbPlotSettings
  1

  2
none_device
  4

  6

 40
0.0
 41
0.0
 42
0.0
 43
0.0
 44
0.0
 45
0.0
 46
0.0
 47
0.0
 48
0.0
 49
0.0
140
0.0
141
0.0
142
1.0
143
1.0
 70
   688
 72
     1
 73
     0
 74
     5
  7

 75
    16
147
1.0
148
0.0
149
0.0
100
AcDbLayout
  1
Layout2
 70
     1
 71
     2
 10
0.0
 20
0.0
 11
0.0
 21
0.0
 12
0.0
 22
0.0
 32
0.0
 14
0.0
 24
0.0
 34
0.0
 15
0.0
 25
0.0
 35
0.0
146
0.0
 13
0.0
 23
0.0
 33
0.0
 16
1.0
 26
0.0
 36
0.0
 17
0.0
 27
1.0
 37
0.0
 76
     0
330
23
  0
LAYOUT
  5
22
102
{ACAD_REACTORS
330
1A
102
}
330
1A
100
AcDbPlotSettings
  1

  2
none_device
  4
Letter_(8.50_x_11.00_Inches)
  6

 40
6.35
 41
6.35
 42
6.35000508
 43
6.35000508
 44
215.9
 45
279.4
 46
0.0
 47
0.0
 48
0.0
 49
0.0
140
0.0
141
0.0
142
1.0
143
1.0
 70
  1712
 72
     1
 73
     0
 74
     0
  7

 75
     0
147
1.0
148
0.0
149
0.0
100
AcDbLayout
  1
Model
 70
     1
 71
     0
 10
0.0
 20
0.0
 11
431.8
 21
279.4
 12
0.0
 22
0.0
 32
0.0
 14
0.0
 24
0.0
 34
0.0
 15
431.8
 25
279.4
 35
0.0
146
0.0
 13
0.0
 23
0.0
 33
0.0
 16
1.0
 26
0.0
 36
0.0
 17
0.0
 27
1.0
 37
0.0
 76
     0
330
1F
331
29
  0
MLINESTYLE
  5
18
102
{ACAD_REACTORS
330
17
102
}
330
17
100
AcDbMlineStyle
  2
Standard
 70
     0
  3

 62
   256
 51
90.0
 52
90.0
 71
     2
 49
0.5
 62
   256
  6
BYLAYER
 49
-0.5
 62
   256
  6
BYLAYER
  0
ACDBPLACEHOLDER
  5
F
102
{ACAD_REACTORS
330
E
102
}
330
E
  0
SCALE
  5
48
102
{ACAD_REACTORS
330
47
102
}
330
47
100
AcDbScale
 70
     0
300
1:1
140
1.0
141
1.0
290
     1
  0
SCALE
  5
49
102
{ACAD_REACTORS
330
47
102
}
330
47
100
AcDbScale
 70
     0
300
1:2
140
1.0
141
2.0
290
     0
  0
SCALE
  5
4A
102
{ACAD_REACTORS
330
47
102
}
330
47
100
AcDbScale
 70
     0
300
1:4
140
1.0
141
4.0
290
     0
  0
SCALE
  5
4B
102
{ACAD_REACTORS
330
47
102
}
330
47
100
AcDbScale
 70
     0
300
1:5
140
1.0
141
5.0
290
     0
  0
SCALE
  5
4C
102
{ACAD_REACTORS
330
47
102
}
330
47
100
AcDbScale
 70
     0
300
1:8
140
1.0
141
8.0
290
     0
  0
SCALE
  5
4D
102
{ACAD_REACTORS
330
47
102
}
330
47
100
AcDbScale
 70
     0
300
1:10
140
1.0
141
10.0
290
     0
  0
SCALE
  5
4E
102
{ACAD_REACTORS
330
47
102
}
330
47
100
AcDbScale
 70
     0
300
1:16
140
1.0
141
16.0
290
     0
  0
SCALE
  5
4F
102
{ACAD_REACTORS
330
47
102
}
330
47
100
AcDbScale
 70
     0
300
1:20
140
1.0
141
20.0
290
     0
  0
SCALE
  5
50
102
{ACAD_REACTORS
330
47
102
}
330
47
100
AcDbScale
 70
     0
300
1:30
140
1.0
141
30.0
290
     0
  0
SCALE
  5
51
102
{ACAD_REACTORS
330
47
102
}
330
47
100
AcDbScale
 70
     0
300
1:40
140
1.0
141
40.0
290
     0
  0
SCALE
  5
52
102
{ACAD_REACTORS
330
47
102
}
330
47
100
AcDbScale
 70
     0
300
1:50
140
1.0
141
50.0
290
     0
  0
SCALE
  5
53
102
{ACAD_REACTORS
330
47
102
}
330
47
100
AcDbScale
 70
     0
300
1:100
140
1.0
141
100.0
290
     0
  0
SCALE
  5
54
102
{ACAD_REACTORS
330
47
102
}
330
47
100
AcDbScale
 70
     0
300
2:1
140
2.0
141
1.0
290
     0
  0
SCALE
  5
55
102
{ACAD_REACTORS
330
47
102
}
330
47
100
AcDbScale
 70
     0
300
4:1
140
4.0
141
1.0
290
     0
  0
SCALE
  5
56
102
{ACAD_REACTORS
330
47
102
}
330
47
100
AcDbScale
 70
     0
300
8:1
140
8.0
141
1.0
290
     0
  0
SCALE
  5
57
102
{ACAD_REACTORS
330
47
102
}
330
47
100
AcDbScale
 70
     0
300
10:1
140
10.0
141
1.0
290
     0
  0
SCALE
  5
58
102
{ACAD_REACTORS
330
47
102
}
330
47
100
AcDbScale
 70
     0
300
100:1
140
100.0
141
1.0
290
     0
  0
SCALE
  5
59
102
{ACAD_REACTORS
330
47
102
}
330
47
100
AcDbScale
 70
     0
300
1/128" = 1'-0"
140
0.0078125
141
12.0
290
     0
  0
SCALE
  5
5A
102
{ACAD_REACTORS
330
47
102
}
330
47
100
AcDbScale
 70
     0
300
1/64" = 1'-0"
140
0.015625
141
12.0
290
     0
  0
SCALE
  5
5B
102
{ACAD_REACTORS
330
47
102
}
330
47
100
AcDbScale
 70
     0
300
1/32" = 1'-0"
140
0.03125
141
12.0
290
     0
  0
SCALE
  5
5C
102
{ACAD_REACTORS
330
47
102
}
330
47
100
AcDbScale
 70
     0
300
1/16" = 1'-0"
140
0.0625
141
12.0
290
     0
  0
SCALE
  5
5D
102
{ACAD_REACTORS
330
47
102
}
330
47
100
AcDbScale
 70
     0
300
3/32" = 1'-0"
140
0.09375
141
12.0
290
     0
  0
SCALE
  5
5E
102
{ACAD_REACTORS
330
47
102
}
330
47
100
AcDbScale
 70
     0
300
1/8" = 1'-0"
140
0.125
141
12.0
290
     0
  0
SCALE
  5
5F
102
{ACAD_REACTORS
330
47
102
}
330
47
100
AcDbScale
 70
     0
300
3/16" = 1'-0"
140
0.1875
141
12.0
290
     0
  0
SCALE
  5
60
102
{ACAD_REACTORS
330
47
102
}
330
47
100
AcDbScale
 70
     0
300
1/4" = 1'-0"
140
0.25
141
12.0
290
     0
  0
SCALE
  5
61
102
{ACAD_REACTORS
330
47
102
}
330
47
100
AcDbScale
 70
     0
300
3/8" = 1'-0"
140
0.375
141
12.0
290
     0
  0
SCALE
  5
62
102
{ACAD_REACTORS
330
47
102
}
330
47
100
AcDbScale
 70
     0
300
1/2" = 1'-0"
140
0.5
141
12.0
290
     0
  0
SCALE
  5
63
102
{ACAD_REACTORS
330
47
102
}
330
47
100
AcDbScale
 70
     0
300
3/4" = 1'-0"
140
0.75
141
12.0
290
     0
  0
SCALE
  5
64
102
{ACAD_REACTORS
330
47
102
}
330
47
100
AcDbScale
 70
     0
300
1" = 1'-0"
140
1.0
141
12.0
290
     0
  0
SCALE
  5
65
102
{ACAD_REACTORS
330
47
102
}
330
47
100
AcDbScale
 70
     0
300
1-1/2" = 1'-0"
140
1.5
141
12.0
290
     0
  0
SCALE
  5
66
102
{ACAD_REACTORS
330
47
102
}
330
47
100
AcDbScale
 70
     0
300
3" = 1'-0"
140
3.0
141
12.0
290
     0
  0
SCALE
  5
67
102
{ACAD_REACTORS
330
47
102
}
330
47
100
AcDbScale
 70
     0
300
6" = 1'-0"
140
6.0
141
12.0
290
     0
  0
SCALE
  5
68
102
{ACAD_REACTORS
330
47
102
}
330
47
100
AcDbScale
 70
     0
300
1'-0" = 1'-0"
140
12.0
141
12.0
290
     0
  0
ENDSEC
  0
EOF
